M48
;Layer_Color=9474304
;FILE_FORMAT=2:5
INCH,LZ
;TYPE=PLATED
T1F00S00C0.01181
T3F00S00C0.03543
;TYPE=NON_PLATED
T4F00S00C0.02953
%
T01
X0073343Y0018149
Y0022974
X0078484Y0017799
X0081274Y0014076
X0093506Y0024801
X0118898Y0018126
X0133883Y0024042
X0140366Y002335
X0141774Y0016985
X0144978Y0017674
X0147458Y0019442
X0149743Y0022502
X0152806Y0019291
X0150395Y0033547
X0151352Y0036292
X013861Y0037571
X013789Y0035063
X013849Y004626
X0137663Y0049318
X0146483Y0050414
X015021Y005267
X0153906Y0056349
X0149919Y0060781
X0133667Y0057247
X0129513Y0056623
X0114678Y0046444
X0106856Y004593
X0106777Y0040819
X0108334Y0050695
X0104297Y0064173
X00929Y00641
X0092398Y0048265
X0091564Y0044045
X0084121Y0044576
X0086005Y005171
X0088777Y003812
X0090568Y0034091
X0075978Y0034646
Y0039764
X0072517Y0029205
X0070031Y0031372
X0067364Y0029078
X0051336Y0032459
X0047636Y0032554
X0045167Y0029937
X0040033Y0048405
X0038302Y0053589
X0051951Y0056226
X0043543Y0065295
X0064993Y005141
T03
X0120164Y0073125
X0128038
X0135912
X0143786
X0032331Y0073125
X0024456
X0016583
X0008708
T04
X0024605Y0030303
Y0053059
M30
