G04*
G04 #@! TF.GenerationSoftware,Altium Limited,Altium Designer,20.0.12 (288)*
G04*
G04 Layer_Color=32768*
%FSLAX25Y25*%
%MOIN*%
G70*
G01*
G75*
%ADD16C,0.01000*%
G36*
X-26401Y32519D02*
X-27548D01*
X-27551D01*
X-27555D01*
X-27577D01*
X-27609D01*
X-27650Y32515D01*
X-27693Y32512D01*
X-27737Y32508D01*
X-27781Y32501D01*
X-27813Y32490D01*
X-27817D01*
X-27828Y32482D01*
X-27842Y32475D01*
X-27861Y32464D01*
X-27883Y32450D01*
X-27904Y32432D01*
X-27926Y32410D01*
X-27948Y32381D01*
X-27952Y32377D01*
X-27955Y32366D01*
X-27962Y32351D01*
X-27973Y32326D01*
X-27984Y32300D01*
X-27992Y32268D01*
X-27995Y32235D01*
X-27999Y32195D01*
Y32177D01*
X-27995Y32162D01*
X-27992Y32126D01*
X-27984Y32082D01*
X-27966Y32031D01*
X-27944Y31977D01*
X-27912Y31922D01*
X-27868Y31871D01*
X-27861Y31867D01*
X-27842Y31853D01*
X-27813Y31831D01*
X-27770Y31809D01*
X-27711Y31784D01*
X-27642Y31765D01*
X-27558Y31751D01*
X-27460Y31744D01*
X-26401D01*
Y31434D01*
X-27584D01*
X-27588D01*
X-27595D01*
X-27602D01*
X-27617D01*
X-27657Y31431D01*
X-27700Y31423D01*
X-27751Y31416D01*
X-27802Y31401D01*
X-27850Y31383D01*
X-27893Y31358D01*
X-27897Y31354D01*
X-27912Y31343D01*
X-27926Y31325D01*
X-27948Y31299D01*
X-27966Y31267D01*
X-27984Y31223D01*
X-27995Y31172D01*
X-27999Y31110D01*
Y31088D01*
X-27995Y31063D01*
X-27992Y31034D01*
X-27981Y30997D01*
X-27970Y30954D01*
X-27952Y30914D01*
X-27930Y30870D01*
X-27926Y30866D01*
X-27915Y30852D01*
X-27901Y30834D01*
X-27879Y30808D01*
X-27850Y30783D01*
X-27813Y30757D01*
X-27773Y30732D01*
X-27726Y30710D01*
X-27719Y30706D01*
X-27700Y30703D01*
X-27671Y30695D01*
X-27631Y30684D01*
X-27577Y30674D01*
X-27511Y30666D01*
X-27435Y30663D01*
X-27347Y30659D01*
X-26401D01*
Y30349D01*
X-28228D01*
Y30626D01*
X-27966D01*
X-27973Y30630D01*
X-27988Y30641D01*
X-28014Y30663D01*
X-28043Y30688D01*
X-28079Y30721D01*
X-28115Y30761D01*
X-28152Y30804D01*
X-28185Y30856D01*
X-28188Y30863D01*
X-28199Y30881D01*
X-28210Y30910D01*
X-28228Y30950D01*
X-28243Y30997D01*
X-28254Y31052D01*
X-28265Y31114D01*
X-28268Y31179D01*
Y31212D01*
X-28265Y31252D01*
X-28257Y31296D01*
X-28246Y31350D01*
X-28232Y31405D01*
X-28210Y31460D01*
X-28181Y31511D01*
X-28177Y31518D01*
X-28166Y31532D01*
X-28148Y31554D01*
X-28119Y31583D01*
X-28086Y31613D01*
X-28046Y31645D01*
X-27999Y31675D01*
X-27944Y31696D01*
X-27948Y31700D01*
X-27959Y31707D01*
X-27973Y31718D01*
X-27995Y31736D01*
X-28021Y31758D01*
X-28046Y31784D01*
X-28075Y31813D01*
X-28108Y31849D01*
X-28137Y31889D01*
X-28166Y31929D01*
X-28192Y31977D01*
X-28217Y32028D01*
X-28239Y32082D01*
X-28254Y32140D01*
X-28265Y32199D01*
X-28268Y32264D01*
Y32290D01*
X-28265Y32308D01*
Y32333D01*
X-28261Y32359D01*
X-28250Y32421D01*
X-28232Y32486D01*
X-28203Y32555D01*
X-28166Y32625D01*
X-28115Y32683D01*
X-28108Y32690D01*
X-28086Y32705D01*
X-28054Y32730D01*
X-28028Y32741D01*
X-28003Y32756D01*
X-27970Y32770D01*
X-27937Y32781D01*
X-27901Y32796D01*
X-27857Y32807D01*
X-27813Y32814D01*
X-27762Y32821D01*
X-27711Y32828D01*
X-27653D01*
X-26401D01*
Y32519D01*
D02*
G37*
G36*
Y29585D02*
X-27548D01*
X-27551D01*
X-27555D01*
X-27577D01*
X-27609D01*
X-27650Y29581D01*
X-27693Y29578D01*
X-27737Y29574D01*
X-27781Y29567D01*
X-27813Y29556D01*
X-27817D01*
X-27828Y29549D01*
X-27842Y29541D01*
X-27861Y29531D01*
X-27883Y29516D01*
X-27904Y29498D01*
X-27926Y29476D01*
X-27948Y29447D01*
X-27952Y29443D01*
X-27955Y29432D01*
X-27962Y29418D01*
X-27973Y29392D01*
X-27984Y29367D01*
X-27992Y29334D01*
X-27995Y29301D01*
X-27999Y29261D01*
Y29243D01*
X-27995Y29228D01*
X-27992Y29192D01*
X-27984Y29148D01*
X-27966Y29097D01*
X-27944Y29043D01*
X-27912Y28988D01*
X-27868Y28937D01*
X-27861Y28934D01*
X-27842Y28919D01*
X-27813Y28897D01*
X-27770Y28875D01*
X-27711Y28850D01*
X-27642Y28832D01*
X-27558Y28817D01*
X-27460Y28810D01*
X-26401D01*
Y28500D01*
X-27584D01*
X-27588D01*
X-27595D01*
X-27602D01*
X-27617D01*
X-27657Y28497D01*
X-27700Y28489D01*
X-27751Y28482D01*
X-27802Y28468D01*
X-27850Y28449D01*
X-27893Y28424D01*
X-27897Y28420D01*
X-27912Y28409D01*
X-27926Y28391D01*
X-27948Y28366D01*
X-27966Y28333D01*
X-27984Y28289D01*
X-27995Y28238D01*
X-27999Y28176D01*
Y28155D01*
X-27995Y28129D01*
X-27992Y28100D01*
X-27981Y28064D01*
X-27970Y28020D01*
X-27952Y27980D01*
X-27930Y27936D01*
X-27926Y27933D01*
X-27915Y27918D01*
X-27901Y27900D01*
X-27879Y27874D01*
X-27850Y27849D01*
X-27813Y27823D01*
X-27773Y27798D01*
X-27726Y27776D01*
X-27719Y27772D01*
X-27700Y27769D01*
X-27671Y27762D01*
X-27631Y27751D01*
X-27577Y27740D01*
X-27511Y27732D01*
X-27435Y27729D01*
X-27347Y27725D01*
X-26401D01*
Y27416D01*
X-28228D01*
Y27692D01*
X-27966D01*
X-27973Y27696D01*
X-27988Y27707D01*
X-28014Y27729D01*
X-28043Y27754D01*
X-28079Y27787D01*
X-28115Y27827D01*
X-28152Y27871D01*
X-28185Y27922D01*
X-28188Y27929D01*
X-28199Y27947D01*
X-28210Y27976D01*
X-28228Y28016D01*
X-28243Y28064D01*
X-28254Y28118D01*
X-28265Y28180D01*
X-28268Y28246D01*
Y28278D01*
X-28265Y28318D01*
X-28257Y28362D01*
X-28246Y28417D01*
X-28232Y28471D01*
X-28210Y28526D01*
X-28181Y28577D01*
X-28177Y28584D01*
X-28166Y28599D01*
X-28148Y28620D01*
X-28119Y28650D01*
X-28086Y28679D01*
X-28046Y28712D01*
X-27999Y28741D01*
X-27944Y28763D01*
X-27948Y28766D01*
X-27959Y28773D01*
X-27973Y28784D01*
X-27995Y28802D01*
X-28021Y28824D01*
X-28046Y28850D01*
X-28075Y28879D01*
X-28108Y28915D01*
X-28137Y28955D01*
X-28166Y28995D01*
X-28192Y29043D01*
X-28217Y29094D01*
X-28239Y29148D01*
X-28254Y29206D01*
X-28265Y29265D01*
X-28268Y29330D01*
Y29356D01*
X-28265Y29374D01*
Y29399D01*
X-28261Y29425D01*
X-28250Y29487D01*
X-28232Y29552D01*
X-28203Y29621D01*
X-28166Y29691D01*
X-28115Y29749D01*
X-28108Y29756D01*
X-28086Y29771D01*
X-28054Y29796D01*
X-28028Y29807D01*
X-28003Y29822D01*
X-27970Y29836D01*
X-27937Y29847D01*
X-27901Y29862D01*
X-27857Y29873D01*
X-27813Y29880D01*
X-27762Y29887D01*
X-27711Y29895D01*
X-27653D01*
X-26401D01*
Y29585D01*
D02*
G37*
G36*
X-27591Y27026D02*
X-27544D01*
X-27489Y27022D01*
X-27435Y27015D01*
X-27311Y27004D01*
X-27180Y26986D01*
X-27056Y26961D01*
X-26994Y26943D01*
X-26940Y26924D01*
X-26936D01*
X-26929Y26921D01*
X-26914Y26913D01*
X-26892Y26906D01*
X-26871Y26895D01*
X-26841Y26881D01*
X-26779Y26844D01*
X-26710Y26801D01*
X-26638Y26750D01*
X-26568Y26684D01*
X-26507Y26611D01*
Y26608D01*
X-26499Y26600D01*
X-26492Y26589D01*
X-26485Y26575D01*
X-26474Y26553D01*
X-26459Y26531D01*
X-26445Y26502D01*
X-26434Y26473D01*
X-26405Y26404D01*
X-26379Y26320D01*
X-26365Y26229D01*
X-26357Y26127D01*
Y26098D01*
X-26361Y26080D01*
Y26054D01*
X-26365Y26025D01*
X-26379Y25956D01*
X-26397Y25880D01*
X-26426Y25800D01*
X-26467Y25719D01*
X-26492Y25679D01*
X-26521Y25643D01*
X-26525Y25639D01*
X-26528Y25636D01*
X-26539Y25625D01*
X-26550Y25614D01*
X-26568Y25599D01*
X-26590Y25581D01*
X-26641Y25545D01*
X-26707Y25508D01*
X-26787Y25472D01*
X-26878Y25443D01*
X-26983Y25421D01*
X-27009Y25719D01*
X-27005D01*
X-26998Y25723D01*
X-26991D01*
X-26976Y25727D01*
X-26936Y25738D01*
X-26892Y25752D01*
X-26841Y25770D01*
X-26790Y25796D01*
X-26743Y25825D01*
X-26703Y25861D01*
X-26700Y25865D01*
X-26689Y25880D01*
X-26674Y25905D01*
X-26659Y25934D01*
X-26641Y25974D01*
X-26627Y26022D01*
X-26616Y26076D01*
X-26612Y26134D01*
Y26160D01*
X-26616Y26185D01*
X-26619Y26218D01*
X-26627Y26258D01*
X-26638Y26298D01*
X-26652Y26342D01*
X-26674Y26382D01*
X-26678Y26386D01*
X-26685Y26400D01*
X-26700Y26422D01*
X-26721Y26444D01*
X-26747Y26473D01*
X-26776Y26502D01*
X-26809Y26531D01*
X-26849Y26560D01*
X-26852Y26564D01*
X-26871Y26571D01*
X-26896Y26586D01*
X-26929Y26600D01*
X-26972Y26618D01*
X-27023Y26637D01*
X-27082Y26655D01*
X-27147Y26673D01*
X-27151D01*
X-27154Y26677D01*
X-27165D01*
X-27180Y26680D01*
X-27216Y26688D01*
X-27264Y26699D01*
X-27322Y26706D01*
X-27384Y26713D01*
X-27453Y26717D01*
X-27526Y26720D01*
X-27529D01*
X-27540D01*
X-27558D01*
X-27588D01*
X-27580Y26717D01*
X-27562Y26702D01*
X-27537Y26680D01*
X-27500Y26655D01*
X-27464Y26618D01*
X-27424Y26575D01*
X-27384Y26524D01*
X-27347Y26466D01*
X-27344Y26458D01*
X-27333Y26436D01*
X-27318Y26404D01*
X-27304Y26364D01*
X-27286Y26309D01*
X-27271Y26251D01*
X-27260Y26185D01*
X-27256Y26116D01*
Y26087D01*
X-27260Y26065D01*
X-27264Y26036D01*
X-27267Y26007D01*
X-27275Y25971D01*
X-27286Y25934D01*
X-27311Y25850D01*
X-27329Y25807D01*
X-27351Y25763D01*
X-27376Y25716D01*
X-27409Y25672D01*
X-27442Y25628D01*
X-27482Y25588D01*
X-27486Y25585D01*
X-27493Y25577D01*
X-27504Y25570D01*
X-27522Y25556D01*
X-27548Y25537D01*
X-27573Y25519D01*
X-27606Y25501D01*
X-27642Y25483D01*
X-27682Y25461D01*
X-27726Y25443D01*
X-27777Y25425D01*
X-27828Y25406D01*
X-27886Y25392D01*
X-27948Y25385D01*
X-28010Y25377D01*
X-28079Y25374D01*
X-28083D01*
X-28097D01*
X-28115D01*
X-28141Y25377D01*
X-28174Y25381D01*
X-28214Y25385D01*
X-28254Y25392D01*
X-28301Y25403D01*
X-28396Y25428D01*
X-28447Y25446D01*
X-28501Y25468D01*
X-28552Y25494D01*
X-28600Y25526D01*
X-28651Y25559D01*
X-28694Y25599D01*
X-28698Y25603D01*
X-28705Y25610D01*
X-28716Y25621D01*
X-28731Y25639D01*
X-28749Y25661D01*
X-28771Y25690D01*
X-28789Y25719D01*
X-28814Y25756D01*
X-28836Y25792D01*
X-28854Y25836D01*
X-28894Y25934D01*
X-28909Y25985D01*
X-28920Y26043D01*
X-28927Y26102D01*
X-28931Y26164D01*
Y26189D01*
X-28927Y26207D01*
Y26225D01*
X-28923Y26251D01*
X-28913Y26313D01*
X-28898Y26382D01*
X-28872Y26458D01*
X-28840Y26535D01*
X-28796Y26611D01*
Y26615D01*
X-28789Y26618D01*
X-28782Y26629D01*
X-28771Y26644D01*
X-28741Y26680D01*
X-28701Y26728D01*
X-28647Y26775D01*
X-28581Y26830D01*
X-28505Y26877D01*
X-28418Y26921D01*
X-28414D01*
X-28407Y26924D01*
X-28392Y26932D01*
X-28374Y26939D01*
X-28348Y26946D01*
X-28316Y26957D01*
X-28279Y26964D01*
X-28239Y26975D01*
X-28192Y26986D01*
X-28137Y26997D01*
X-28079Y27004D01*
X-28017Y27012D01*
X-27948Y27019D01*
X-27875Y27026D01*
X-27795Y27030D01*
X-27711D01*
X-27708D01*
X-27689D01*
X-27664D01*
X-27631D01*
X-27591Y27026D01*
D02*
G37*
G36*
Y25068D02*
X-27544D01*
X-27489Y25064D01*
X-27435Y25057D01*
X-27311Y25046D01*
X-27180Y25028D01*
X-27056Y25002D01*
X-26994Y24984D01*
X-26940Y24966D01*
X-26936D01*
X-26929Y24962D01*
X-26914Y24955D01*
X-26892Y24948D01*
X-26871Y24937D01*
X-26841Y24922D01*
X-26779Y24886D01*
X-26710Y24842D01*
X-26638Y24791D01*
X-26568Y24726D01*
X-26507Y24653D01*
Y24649D01*
X-26499Y24642D01*
X-26492Y24631D01*
X-26485Y24617D01*
X-26474Y24595D01*
X-26459Y24573D01*
X-26445Y24544D01*
X-26434Y24515D01*
X-26405Y24445D01*
X-26379Y24362D01*
X-26365Y24271D01*
X-26357Y24169D01*
Y24140D01*
X-26361Y24121D01*
Y24096D01*
X-26365Y24067D01*
X-26379Y23998D01*
X-26397Y23921D01*
X-26426Y23841D01*
X-26467Y23761D01*
X-26492Y23721D01*
X-26521Y23685D01*
X-26525Y23681D01*
X-26528Y23677D01*
X-26539Y23666D01*
X-26550Y23655D01*
X-26568Y23641D01*
X-26590Y23623D01*
X-26641Y23586D01*
X-26707Y23550D01*
X-26787Y23514D01*
X-26878Y23484D01*
X-26983Y23463D01*
X-27009Y23761D01*
X-27005D01*
X-26998Y23765D01*
X-26991D01*
X-26976Y23768D01*
X-26936Y23779D01*
X-26892Y23794D01*
X-26841Y23812D01*
X-26790Y23837D01*
X-26743Y23867D01*
X-26703Y23903D01*
X-26700Y23907D01*
X-26689Y23921D01*
X-26674Y23947D01*
X-26659Y23976D01*
X-26641Y24016D01*
X-26627Y24063D01*
X-26616Y24118D01*
X-26612Y24176D01*
Y24202D01*
X-26616Y24227D01*
X-26619Y24260D01*
X-26627Y24300D01*
X-26638Y24340D01*
X-26652Y24384D01*
X-26674Y24424D01*
X-26678Y24427D01*
X-26685Y24442D01*
X-26700Y24464D01*
X-26721Y24486D01*
X-26747Y24515D01*
X-26776Y24544D01*
X-26809Y24573D01*
X-26849Y24602D01*
X-26852Y24606D01*
X-26871Y24613D01*
X-26896Y24627D01*
X-26929Y24642D01*
X-26972Y24660D01*
X-27023Y24678D01*
X-27082Y24697D01*
X-27147Y24715D01*
X-27151D01*
X-27154Y24718D01*
X-27165D01*
X-27180Y24722D01*
X-27216Y24729D01*
X-27264Y24740D01*
X-27322Y24747D01*
X-27384Y24755D01*
X-27453Y24758D01*
X-27526Y24762D01*
X-27529D01*
X-27540D01*
X-27558D01*
X-27588D01*
X-27580Y24758D01*
X-27562Y24744D01*
X-27537Y24722D01*
X-27500Y24697D01*
X-27464Y24660D01*
X-27424Y24617D01*
X-27384Y24566D01*
X-27347Y24507D01*
X-27344Y24500D01*
X-27333Y24478D01*
X-27318Y24445D01*
X-27304Y24405D01*
X-27286Y24351D01*
X-27271Y24293D01*
X-27260Y24227D01*
X-27256Y24158D01*
Y24129D01*
X-27260Y24107D01*
X-27264Y24078D01*
X-27267Y24049D01*
X-27275Y24012D01*
X-27286Y23976D01*
X-27311Y23892D01*
X-27329Y23848D01*
X-27351Y23805D01*
X-27376Y23757D01*
X-27409Y23714D01*
X-27442Y23670D01*
X-27482Y23630D01*
X-27486Y23626D01*
X-27493Y23619D01*
X-27504Y23612D01*
X-27522Y23597D01*
X-27548Y23579D01*
X-27573Y23561D01*
X-27606Y23543D01*
X-27642Y23525D01*
X-27682Y23503D01*
X-27726Y23484D01*
X-27777Y23466D01*
X-27828Y23448D01*
X-27886Y23434D01*
X-27948Y23426D01*
X-28010Y23419D01*
X-28079Y23415D01*
X-28083D01*
X-28097D01*
X-28115D01*
X-28141Y23419D01*
X-28174Y23423D01*
X-28214Y23426D01*
X-28254Y23434D01*
X-28301Y23444D01*
X-28396Y23470D01*
X-28447Y23488D01*
X-28501Y23510D01*
X-28552Y23535D01*
X-28600Y23568D01*
X-28651Y23601D01*
X-28694Y23641D01*
X-28698Y23645D01*
X-28705Y23652D01*
X-28716Y23663D01*
X-28731Y23681D01*
X-28749Y23703D01*
X-28771Y23732D01*
X-28789Y23761D01*
X-28814Y23798D01*
X-28836Y23834D01*
X-28854Y23878D01*
X-28894Y23976D01*
X-28909Y24027D01*
X-28920Y24085D01*
X-28927Y24143D01*
X-28931Y24205D01*
Y24231D01*
X-28927Y24249D01*
Y24267D01*
X-28923Y24293D01*
X-28913Y24354D01*
X-28898Y24424D01*
X-28872Y24500D01*
X-28840Y24576D01*
X-28796Y24653D01*
Y24656D01*
X-28789Y24660D01*
X-28782Y24671D01*
X-28771Y24686D01*
X-28741Y24722D01*
X-28701Y24769D01*
X-28647Y24817D01*
X-28581Y24871D01*
X-28505Y24919D01*
X-28418Y24962D01*
X-28414D01*
X-28407Y24966D01*
X-28392Y24973D01*
X-28374Y24981D01*
X-28348Y24988D01*
X-28316Y24999D01*
X-28279Y25006D01*
X-28239Y25017D01*
X-28192Y25028D01*
X-28137Y25039D01*
X-28079Y25046D01*
X-28017Y25053D01*
X-27948Y25061D01*
X-27875Y25068D01*
X-27795Y25071D01*
X-27711D01*
X-27708D01*
X-27689D01*
X-27664D01*
X-27631D01*
X-27591Y25068D01*
D02*
G37*
G36*
X-26401Y22611D02*
X-26754D01*
Y22964D01*
X-26401D01*
Y22611D01*
D02*
G37*
G36*
X-27591Y22130D02*
X-27544D01*
X-27489Y22127D01*
X-27435Y22119D01*
X-27311Y22108D01*
X-27180Y22090D01*
X-27056Y22065D01*
X-26994Y22047D01*
X-26940Y22028D01*
X-26936D01*
X-26929Y22025D01*
X-26914Y22017D01*
X-26892Y22010D01*
X-26871Y21999D01*
X-26841Y21985D01*
X-26779Y21948D01*
X-26710Y21905D01*
X-26638Y21854D01*
X-26568Y21788D01*
X-26507Y21715D01*
Y21712D01*
X-26499Y21704D01*
X-26492Y21694D01*
X-26485Y21679D01*
X-26474Y21657D01*
X-26459Y21635D01*
X-26445Y21606D01*
X-26434Y21577D01*
X-26405Y21508D01*
X-26379Y21424D01*
X-26365Y21333D01*
X-26357Y21231D01*
Y21202D01*
X-26361Y21184D01*
Y21159D01*
X-26365Y21129D01*
X-26379Y21060D01*
X-26397Y20984D01*
X-26426Y20904D01*
X-26467Y20824D01*
X-26492Y20784D01*
X-26521Y20747D01*
X-26525Y20743D01*
X-26528Y20740D01*
X-26539Y20729D01*
X-26550Y20718D01*
X-26568Y20704D01*
X-26590Y20685D01*
X-26641Y20649D01*
X-26707Y20613D01*
X-26787Y20576D01*
X-26878Y20547D01*
X-26983Y20525D01*
X-27009Y20824D01*
X-27005D01*
X-26998Y20827D01*
X-26991D01*
X-26976Y20831D01*
X-26936Y20842D01*
X-26892Y20856D01*
X-26841Y20875D01*
X-26790Y20900D01*
X-26743Y20929D01*
X-26703Y20966D01*
X-26700Y20969D01*
X-26689Y20984D01*
X-26674Y21009D01*
X-26659Y21038D01*
X-26641Y21078D01*
X-26627Y21126D01*
X-26616Y21180D01*
X-26612Y21239D01*
Y21264D01*
X-26616Y21290D01*
X-26619Y21322D01*
X-26627Y21362D01*
X-26638Y21402D01*
X-26652Y21446D01*
X-26674Y21486D01*
X-26678Y21490D01*
X-26685Y21504D01*
X-26700Y21526D01*
X-26721Y21548D01*
X-26747Y21577D01*
X-26776Y21606D01*
X-26809Y21635D01*
X-26849Y21664D01*
X-26852Y21668D01*
X-26871Y21675D01*
X-26896Y21690D01*
X-26929Y21704D01*
X-26972Y21723D01*
X-27023Y21741D01*
X-27082Y21759D01*
X-27147Y21777D01*
X-27151D01*
X-27154Y21781D01*
X-27165D01*
X-27180Y21785D01*
X-27216Y21792D01*
X-27264Y21803D01*
X-27322Y21810D01*
X-27384Y21817D01*
X-27453Y21821D01*
X-27526Y21825D01*
X-27529D01*
X-27540D01*
X-27558D01*
X-27588D01*
X-27580Y21821D01*
X-27562Y21806D01*
X-27537Y21785D01*
X-27500Y21759D01*
X-27464Y21723D01*
X-27424Y21679D01*
X-27384Y21628D01*
X-27347Y21570D01*
X-27344Y21563D01*
X-27333Y21541D01*
X-27318Y21508D01*
X-27304Y21468D01*
X-27286Y21413D01*
X-27271Y21355D01*
X-27260Y21290D01*
X-27256Y21220D01*
Y21191D01*
X-27260Y21169D01*
X-27264Y21140D01*
X-27267Y21111D01*
X-27275Y21075D01*
X-27286Y21038D01*
X-27311Y20955D01*
X-27329Y20911D01*
X-27351Y20867D01*
X-27376Y20820D01*
X-27409Y20776D01*
X-27442Y20733D01*
X-27482Y20693D01*
X-27486Y20689D01*
X-27493Y20682D01*
X-27504Y20674D01*
X-27522Y20660D01*
X-27548Y20642D01*
X-27573Y20623D01*
X-27606Y20605D01*
X-27642Y20587D01*
X-27682Y20565D01*
X-27726Y20547D01*
X-27777Y20529D01*
X-27828Y20511D01*
X-27886Y20496D01*
X-27948Y20489D01*
X-28010Y20482D01*
X-28079Y20478D01*
X-28083D01*
X-28097D01*
X-28115D01*
X-28141Y20482D01*
X-28174Y20485D01*
X-28214Y20489D01*
X-28254Y20496D01*
X-28301Y20507D01*
X-28396Y20532D01*
X-28447Y20551D01*
X-28501Y20572D01*
X-28552Y20598D01*
X-28600Y20631D01*
X-28651Y20663D01*
X-28694Y20704D01*
X-28698Y20707D01*
X-28705Y20714D01*
X-28716Y20725D01*
X-28731Y20743D01*
X-28749Y20765D01*
X-28771Y20795D01*
X-28789Y20824D01*
X-28814Y20860D01*
X-28836Y20896D01*
X-28854Y20940D01*
X-28894Y21038D01*
X-28909Y21089D01*
X-28920Y21148D01*
X-28927Y21206D01*
X-28931Y21268D01*
Y21293D01*
X-28927Y21311D01*
Y21330D01*
X-28923Y21355D01*
X-28913Y21417D01*
X-28898Y21486D01*
X-28872Y21563D01*
X-28840Y21639D01*
X-28796Y21715D01*
Y21719D01*
X-28789Y21723D01*
X-28782Y21734D01*
X-28771Y21748D01*
X-28741Y21785D01*
X-28701Y21832D01*
X-28647Y21879D01*
X-28581Y21934D01*
X-28505Y21981D01*
X-28418Y22025D01*
X-28414D01*
X-28407Y22028D01*
X-28392Y22036D01*
X-28374Y22043D01*
X-28348Y22050D01*
X-28316Y22061D01*
X-28279Y22069D01*
X-28239Y22079D01*
X-28192Y22090D01*
X-28137Y22101D01*
X-28079Y22108D01*
X-28017Y22116D01*
X-27948Y22123D01*
X-27875Y22130D01*
X-27795Y22134D01*
X-27711D01*
X-27708D01*
X-27689D01*
X-27664D01*
X-27631D01*
X-27591Y22130D01*
D02*
G37*
G36*
X-26401Y19375D02*
X-28370D01*
X-28367Y19371D01*
X-28352Y19353D01*
X-28330Y19331D01*
X-28305Y19295D01*
X-28272Y19255D01*
X-28236Y19204D01*
X-28196Y19146D01*
X-28155Y19080D01*
Y19076D01*
X-28152Y19073D01*
X-28137Y19051D01*
X-28119Y19015D01*
X-28097Y18971D01*
X-28072Y18920D01*
X-28046Y18865D01*
X-28021Y18811D01*
X-27999Y18756D01*
X-28297D01*
Y18760D01*
X-28305Y18767D01*
X-28308Y18782D01*
X-28319Y18800D01*
X-28330Y18822D01*
X-28345Y18847D01*
X-28381Y18909D01*
X-28421Y18982D01*
X-28472Y19055D01*
X-28530Y19131D01*
X-28592Y19207D01*
X-28596Y19211D01*
X-28600Y19215D01*
X-28610Y19226D01*
X-28621Y19240D01*
X-28658Y19273D01*
X-28701Y19317D01*
X-28752Y19360D01*
X-28811Y19408D01*
X-28869Y19448D01*
X-28931Y19484D01*
Y19684D01*
X-26401D01*
Y19375D01*
D02*
G37*
G36*
X77722Y-23835D02*
X77748D01*
X77773Y-23839D01*
X77835Y-23850D01*
X77900Y-23868D01*
X77970Y-23897D01*
X78039Y-23934D01*
X78097Y-23985D01*
X78104Y-23992D01*
X78119Y-24014D01*
X78144Y-24047D01*
X78155Y-24072D01*
X78170Y-24097D01*
X78184Y-24130D01*
X78195Y-24163D01*
X78210Y-24199D01*
X78221Y-24243D01*
X78228Y-24287D01*
X78235Y-24338D01*
X78243Y-24389D01*
Y-24447D01*
Y-25699D01*
X77933D01*
Y-24552D01*
Y-24549D01*
Y-24545D01*
Y-24523D01*
Y-24490D01*
X77930Y-24451D01*
X77926Y-24407D01*
X77922Y-24363D01*
X77915Y-24319D01*
X77904Y-24287D01*
Y-24283D01*
X77897Y-24272D01*
X77890Y-24258D01*
X77879Y-24239D01*
X77864Y-24217D01*
X77846Y-24196D01*
X77824Y-24174D01*
X77795Y-24152D01*
X77791Y-24148D01*
X77780Y-24145D01*
X77766Y-24137D01*
X77740Y-24127D01*
X77715Y-24116D01*
X77682Y-24108D01*
X77649Y-24105D01*
X77609Y-24101D01*
X77591D01*
X77577Y-24105D01*
X77540Y-24108D01*
X77496Y-24116D01*
X77446Y-24134D01*
X77391Y-24156D01*
X77336Y-24188D01*
X77285Y-24232D01*
X77282Y-24239D01*
X77267Y-24258D01*
X77245Y-24287D01*
X77223Y-24330D01*
X77198Y-24389D01*
X77180Y-24458D01*
X77165Y-24542D01*
X77158Y-24640D01*
Y-25699D01*
X76849D01*
Y-24516D01*
Y-24512D01*
Y-24505D01*
Y-24498D01*
Y-24483D01*
X76845Y-24443D01*
X76838Y-24399D01*
X76830Y-24349D01*
X76816Y-24298D01*
X76798Y-24250D01*
X76772Y-24207D01*
X76768Y-24203D01*
X76758Y-24188D01*
X76739Y-24174D01*
X76714Y-24152D01*
X76681Y-24134D01*
X76637Y-24116D01*
X76587Y-24105D01*
X76525Y-24101D01*
X76503D01*
X76477Y-24105D01*
X76448Y-24108D01*
X76412Y-24119D01*
X76368Y-24130D01*
X76328Y-24148D01*
X76284Y-24170D01*
X76281Y-24174D01*
X76266Y-24185D01*
X76248Y-24199D01*
X76222Y-24221D01*
X76197Y-24250D01*
X76171Y-24287D01*
X76146Y-24327D01*
X76124Y-24374D01*
X76121Y-24381D01*
X76117Y-24399D01*
X76110Y-24429D01*
X76099Y-24469D01*
X76088Y-24523D01*
X76081Y-24589D01*
X76077Y-24665D01*
X76073Y-24753D01*
Y-25699D01*
X75764D01*
Y-23872D01*
X76040D01*
Y-24134D01*
X76044Y-24127D01*
X76055Y-24112D01*
X76077Y-24087D01*
X76102Y-24057D01*
X76135Y-24021D01*
X76175Y-23985D01*
X76219Y-23948D01*
X76270Y-23915D01*
X76277Y-23912D01*
X76295Y-23901D01*
X76324Y-23890D01*
X76364Y-23872D01*
X76412Y-23857D01*
X76466Y-23846D01*
X76528Y-23835D01*
X76594Y-23832D01*
X76626D01*
X76666Y-23835D01*
X76710Y-23843D01*
X76765Y-23854D01*
X76819Y-23868D01*
X76874Y-23890D01*
X76925Y-23919D01*
X76932Y-23923D01*
X76947Y-23934D01*
X76969Y-23952D01*
X76998Y-23981D01*
X77027Y-24014D01*
X77060Y-24054D01*
X77089Y-24101D01*
X77111Y-24156D01*
X77114Y-24152D01*
X77122Y-24141D01*
X77132Y-24127D01*
X77151Y-24105D01*
X77172Y-24079D01*
X77198Y-24054D01*
X77227Y-24025D01*
X77263Y-23992D01*
X77303Y-23963D01*
X77344Y-23934D01*
X77391Y-23908D01*
X77442Y-23883D01*
X77496Y-23861D01*
X77555Y-23846D01*
X77613Y-23835D01*
X77678Y-23832D01*
X77704D01*
X77722Y-23835D01*
D02*
G37*
G36*
X74788D02*
X74814D01*
X74839Y-23839D01*
X74901Y-23850D01*
X74967Y-23868D01*
X75036Y-23897D01*
X75105Y-23934D01*
X75163Y-23985D01*
X75170Y-23992D01*
X75185Y-24014D01*
X75210Y-24047D01*
X75222Y-24072D01*
X75236Y-24097D01*
X75251Y-24130D01*
X75261Y-24163D01*
X75276Y-24199D01*
X75287Y-24243D01*
X75294Y-24287D01*
X75301Y-24338D01*
X75309Y-24389D01*
Y-24447D01*
Y-25699D01*
X74999D01*
Y-24552D01*
Y-24549D01*
Y-24545D01*
Y-24523D01*
Y-24490D01*
X74996Y-24451D01*
X74992Y-24407D01*
X74989Y-24363D01*
X74981Y-24319D01*
X74970Y-24287D01*
Y-24283D01*
X74963Y-24272D01*
X74956Y-24258D01*
X74945Y-24239D01*
X74930Y-24217D01*
X74912Y-24196D01*
X74890Y-24174D01*
X74861Y-24152D01*
X74857Y-24148D01*
X74847Y-24145D01*
X74832Y-24137D01*
X74806Y-24127D01*
X74781Y-24116D01*
X74748Y-24108D01*
X74716Y-24105D01*
X74676Y-24101D01*
X74657D01*
X74643Y-24105D01*
X74606Y-24108D01*
X74563Y-24116D01*
X74512Y-24134D01*
X74457Y-24156D01*
X74402Y-24188D01*
X74352Y-24232D01*
X74348Y-24239D01*
X74333Y-24258D01*
X74312Y-24287D01*
X74290Y-24330D01*
X74264Y-24389D01*
X74246Y-24458D01*
X74231Y-24542D01*
X74224Y-24640D01*
Y-25699D01*
X73915D01*
Y-24516D01*
Y-24512D01*
Y-24505D01*
Y-24498D01*
Y-24483D01*
X73911Y-24443D01*
X73904Y-24399D01*
X73896Y-24349D01*
X73882Y-24298D01*
X73864Y-24250D01*
X73838Y-24207D01*
X73835Y-24203D01*
X73824Y-24188D01*
X73805Y-24174D01*
X73780Y-24152D01*
X73747Y-24134D01*
X73704Y-24116D01*
X73653Y-24105D01*
X73591Y-24101D01*
X73569D01*
X73543Y-24105D01*
X73514Y-24108D01*
X73478Y-24119D01*
X73434Y-24130D01*
X73394Y-24148D01*
X73351Y-24170D01*
X73347Y-24174D01*
X73332Y-24185D01*
X73314Y-24199D01*
X73289Y-24221D01*
X73263Y-24250D01*
X73238Y-24287D01*
X73212Y-24327D01*
X73190Y-24374D01*
X73187Y-24381D01*
X73183Y-24399D01*
X73176Y-24429D01*
X73165Y-24469D01*
X73154Y-24523D01*
X73147Y-24589D01*
X73143Y-24665D01*
X73139Y-24753D01*
Y-25699D01*
X72830D01*
Y-23872D01*
X73107D01*
Y-24134D01*
X73110Y-24127D01*
X73121Y-24112D01*
X73143Y-24087D01*
X73168Y-24057D01*
X73201Y-24021D01*
X73241Y-23985D01*
X73285Y-23948D01*
X73336Y-23915D01*
X73343Y-23912D01*
X73361Y-23901D01*
X73391Y-23890D01*
X73431Y-23872D01*
X73478Y-23857D01*
X73532Y-23846D01*
X73594Y-23835D01*
X73660Y-23832D01*
X73693D01*
X73733Y-23835D01*
X73776Y-23843D01*
X73831Y-23854D01*
X73886Y-23868D01*
X73940Y-23890D01*
X73991Y-23919D01*
X73998Y-23923D01*
X74013Y-23934D01*
X74035Y-23952D01*
X74064Y-23981D01*
X74093Y-24014D01*
X74126Y-24054D01*
X74155Y-24101D01*
X74177Y-24156D01*
X74180Y-24152D01*
X74188Y-24141D01*
X74199Y-24127D01*
X74217Y-24105D01*
X74239Y-24079D01*
X74264Y-24054D01*
X74293Y-24025D01*
X74330Y-23992D01*
X74370Y-23963D01*
X74410Y-23934D01*
X74457Y-23908D01*
X74508Y-23883D01*
X74563Y-23861D01*
X74621Y-23846D01*
X74679Y-23835D01*
X74745Y-23832D01*
X74770D01*
X74788Y-23835D01*
D02*
G37*
G36*
X66759Y-23173D02*
X66806Y-23180D01*
X66864Y-23191D01*
X66930Y-23209D01*
X66995Y-23231D01*
X67061Y-23260D01*
X67064D01*
X67068Y-23264D01*
X67090Y-23275D01*
X67123Y-23297D01*
X67159Y-23322D01*
X67203Y-23359D01*
X67246Y-23399D01*
X67290Y-23446D01*
X67326Y-23501D01*
X67330Y-23508D01*
X67341Y-23526D01*
X67355Y-23559D01*
X67374Y-23599D01*
X67392Y-23646D01*
X67406Y-23701D01*
X67417Y-23763D01*
X67421Y-23824D01*
Y-23832D01*
Y-23854D01*
X67417Y-23883D01*
X67410Y-23923D01*
X67399Y-23970D01*
X67381Y-24021D01*
X67359Y-24072D01*
X67330Y-24123D01*
X67326Y-24130D01*
X67315Y-24145D01*
X67294Y-24170D01*
X67264Y-24199D01*
X67228Y-24232D01*
X67184Y-24269D01*
X67133Y-24301D01*
X67071Y-24334D01*
X67075D01*
X67082Y-24338D01*
X67093Y-24341D01*
X67108Y-24345D01*
X67148Y-24360D01*
X67199Y-24381D01*
X67257Y-24410D01*
X67315Y-24447D01*
X67370Y-24494D01*
X67421Y-24549D01*
X67425Y-24556D01*
X67439Y-24578D01*
X67461Y-24614D01*
X67483Y-24662D01*
X67505Y-24720D01*
X67527Y-24789D01*
X67541Y-24869D01*
X67545Y-24957D01*
Y-24960D01*
Y-24971D01*
Y-24989D01*
X67541Y-25011D01*
X67537Y-25040D01*
X67530Y-25073D01*
X67523Y-25109D01*
X67516Y-25149D01*
X67487Y-25237D01*
X67465Y-25284D01*
X67443Y-25328D01*
X67414Y-25375D01*
X67381Y-25422D01*
X67344Y-25470D01*
X67301Y-25513D01*
X67297Y-25517D01*
X67290Y-25524D01*
X67275Y-25535D01*
X67257Y-25550D01*
X67235Y-25568D01*
X67206Y-25586D01*
X67173Y-25608D01*
X67133Y-25626D01*
X67093Y-25648D01*
X67046Y-25670D01*
X66999Y-25688D01*
X66944Y-25706D01*
X66886Y-25721D01*
X66824Y-25732D01*
X66762Y-25739D01*
X66693Y-25743D01*
X66660D01*
X66638Y-25739D01*
X66609Y-25735D01*
X66576Y-25732D01*
X66540Y-25725D01*
X66500Y-25717D01*
X66413Y-25695D01*
X66322Y-25659D01*
X66274Y-25637D01*
X66231Y-25612D01*
X66187Y-25579D01*
X66143Y-25546D01*
X66140Y-25543D01*
X66132Y-25535D01*
X66122Y-25524D01*
X66110Y-25510D01*
X66092Y-25492D01*
X66074Y-25466D01*
X66052Y-25441D01*
X66030Y-25408D01*
X66009Y-25371D01*
X65987Y-25335D01*
X65947Y-25248D01*
X65914Y-25146D01*
X65903Y-25091D01*
X65896Y-25033D01*
X66205Y-24993D01*
Y-24996D01*
X66209Y-25004D01*
X66212Y-25018D01*
X66216Y-25036D01*
X66220Y-25058D01*
X66227Y-25084D01*
X66245Y-25139D01*
X66271Y-25204D01*
X66303Y-25266D01*
X66340Y-25324D01*
X66383Y-25375D01*
X66391Y-25379D01*
X66405Y-25393D01*
X66435Y-25411D01*
X66471Y-25430D01*
X66515Y-25451D01*
X66569Y-25470D01*
X66631Y-25484D01*
X66697Y-25488D01*
X66718D01*
X66733Y-25484D01*
X66773Y-25481D01*
X66824Y-25470D01*
X66882Y-25451D01*
X66944Y-25426D01*
X67006Y-25390D01*
X67064Y-25339D01*
X67071Y-25331D01*
X67090Y-25310D01*
X67111Y-25277D01*
X67141Y-25233D01*
X67170Y-25179D01*
X67192Y-25117D01*
X67210Y-25044D01*
X67217Y-24964D01*
Y-24960D01*
Y-24953D01*
Y-24942D01*
X67213Y-24927D01*
X67210Y-24887D01*
X67199Y-24840D01*
X67184Y-24782D01*
X67159Y-24724D01*
X67123Y-24665D01*
X67075Y-24611D01*
X67068Y-24603D01*
X67050Y-24589D01*
X67020Y-24567D01*
X66980Y-24542D01*
X66930Y-24516D01*
X66868Y-24494D01*
X66799Y-24480D01*
X66722Y-24472D01*
X66689D01*
X66664Y-24476D01*
X66631Y-24480D01*
X66595Y-24487D01*
X66551Y-24494D01*
X66504Y-24505D01*
X66540Y-24232D01*
X66558D01*
X66573Y-24236D01*
X66620D01*
X66660Y-24228D01*
X66707Y-24221D01*
X66762Y-24210D01*
X66824Y-24192D01*
X66882Y-24167D01*
X66944Y-24134D01*
X66948D01*
X66951Y-24130D01*
X66970Y-24116D01*
X66995Y-24090D01*
X67024Y-24057D01*
X67053Y-24010D01*
X67079Y-23956D01*
X67097Y-23894D01*
X67104Y-23857D01*
Y-23817D01*
Y-23813D01*
Y-23810D01*
Y-23788D01*
X67097Y-23759D01*
X67090Y-23719D01*
X67075Y-23675D01*
X67057Y-23628D01*
X67028Y-23581D01*
X66988Y-23537D01*
X66984Y-23533D01*
X66966Y-23519D01*
X66940Y-23501D01*
X66908Y-23479D01*
X66864Y-23460D01*
X66813Y-23442D01*
X66755Y-23428D01*
X66689Y-23424D01*
X66660D01*
X66627Y-23431D01*
X66584Y-23439D01*
X66536Y-23453D01*
X66489Y-23471D01*
X66438Y-23501D01*
X66391Y-23537D01*
X66387Y-23540D01*
X66373Y-23559D01*
X66351Y-23584D01*
X66325Y-23621D01*
X66300Y-23668D01*
X66274Y-23726D01*
X66252Y-23795D01*
X66238Y-23875D01*
X65929Y-23821D01*
Y-23817D01*
X65932Y-23806D01*
X65936Y-23792D01*
X65939Y-23770D01*
X65947Y-23744D01*
X65958Y-23715D01*
X65979Y-23646D01*
X66016Y-23566D01*
X66060Y-23486D01*
X66114Y-23410D01*
X66183Y-23340D01*
X66187Y-23337D01*
X66194Y-23333D01*
X66205Y-23326D01*
X66220Y-23315D01*
X66238Y-23300D01*
X66263Y-23286D01*
X66289Y-23271D01*
X66322Y-23253D01*
X66394Y-23224D01*
X66478Y-23195D01*
X66576Y-23177D01*
X66627Y-23169D01*
X66718D01*
X66759Y-23173D01*
D02*
G37*
G36*
X68378Y-25699D02*
X68025D01*
Y-25346D01*
X68378D01*
Y-25699D01*
D02*
G37*
G36*
X65233Y-24811D02*
X65575D01*
Y-25095D01*
X65233D01*
Y-25699D01*
X64924D01*
Y-25095D01*
X63828D01*
Y-24811D01*
X64982Y-23180D01*
X65233D01*
Y-24811D01*
D02*
G37*
G36*
X71662Y-23173D02*
X71691Y-23177D01*
X71723Y-23180D01*
X71760Y-23184D01*
X71796Y-23195D01*
X71884Y-23217D01*
X71971Y-23249D01*
X72015Y-23271D01*
X72058Y-23297D01*
X72098Y-23329D01*
X72138Y-23362D01*
X72142Y-23366D01*
X72146Y-23369D01*
X72157Y-23380D01*
X72171Y-23395D01*
X72186Y-23417D01*
X72204Y-23439D01*
X72240Y-23493D01*
X72277Y-23562D01*
X72309Y-23642D01*
X72335Y-23733D01*
X72339Y-23781D01*
X72342Y-23832D01*
Y-23835D01*
Y-23839D01*
Y-23861D01*
X72339Y-23894D01*
X72331Y-23934D01*
X72320Y-23985D01*
X72302Y-24036D01*
X72280Y-24087D01*
X72248Y-24137D01*
X72244Y-24145D01*
X72229Y-24159D01*
X72207Y-24181D01*
X72178Y-24210D01*
X72138Y-24243D01*
X72091Y-24276D01*
X72036Y-24308D01*
X71971Y-24338D01*
X71975D01*
X71982Y-24341D01*
X71993Y-24345D01*
X72007Y-24352D01*
X72051Y-24370D01*
X72102Y-24396D01*
X72157Y-24432D01*
X72215Y-24472D01*
X72269Y-24523D01*
X72320Y-24581D01*
Y-24585D01*
X72324Y-24589D01*
X72339Y-24611D01*
X72360Y-24647D01*
X72382Y-24694D01*
X72404Y-24753D01*
X72426Y-24822D01*
X72440Y-24898D01*
X72444Y-24982D01*
Y-24986D01*
Y-24996D01*
Y-25015D01*
X72440Y-25036D01*
X72437Y-25062D01*
X72433Y-25095D01*
X72426Y-25131D01*
X72415Y-25171D01*
X72390Y-25255D01*
X72371Y-25302D01*
X72346Y-25346D01*
X72320Y-25393D01*
X72291Y-25437D01*
X72255Y-25481D01*
X72215Y-25524D01*
X72211Y-25528D01*
X72204Y-25535D01*
X72193Y-25546D01*
X72175Y-25557D01*
X72149Y-25575D01*
X72124Y-25594D01*
X72091Y-25612D01*
X72055Y-25633D01*
X72015Y-25655D01*
X71967Y-25674D01*
X71916Y-25692D01*
X71865Y-25710D01*
X71807Y-25721D01*
X71745Y-25732D01*
X71683Y-25739D01*
X71614Y-25743D01*
X71578D01*
X71552Y-25739D01*
X71520Y-25735D01*
X71483Y-25732D01*
X71443Y-25725D01*
X71399Y-25714D01*
X71301Y-25688D01*
X71250Y-25670D01*
X71203Y-25652D01*
X71152Y-25626D01*
X71101Y-25597D01*
X71054Y-25564D01*
X71010Y-25524D01*
X71006Y-25521D01*
X70999Y-25513D01*
X70988Y-25502D01*
X70974Y-25484D01*
X70959Y-25462D01*
X70937Y-25437D01*
X70919Y-25408D01*
X70897Y-25371D01*
X70875Y-25335D01*
X70857Y-25291D01*
X70821Y-25200D01*
X70806Y-25146D01*
X70795Y-25091D01*
X70788Y-25033D01*
X70784Y-24975D01*
Y-24971D01*
Y-24964D01*
Y-24949D01*
X70788Y-24935D01*
Y-24913D01*
X70792Y-24887D01*
X70799Y-24829D01*
X70813Y-24764D01*
X70835Y-24698D01*
X70868Y-24629D01*
X70908Y-24563D01*
Y-24560D01*
X70915Y-24556D01*
X70930Y-24538D01*
X70959Y-24509D01*
X70999Y-24472D01*
X71050Y-24436D01*
X71112Y-24396D01*
X71181Y-24363D01*
X71265Y-24338D01*
X71261D01*
X71258Y-24334D01*
X71247Y-24330D01*
X71232Y-24323D01*
X71199Y-24308D01*
X71156Y-24287D01*
X71108Y-24258D01*
X71061Y-24221D01*
X71017Y-24181D01*
X70977Y-24137D01*
X70974Y-24130D01*
X70963Y-24116D01*
X70948Y-24087D01*
X70934Y-24050D01*
X70915Y-24003D01*
X70901Y-23948D01*
X70890Y-23886D01*
X70886Y-23821D01*
Y-23817D01*
Y-23810D01*
Y-23795D01*
X70890Y-23774D01*
X70894Y-23752D01*
X70897Y-23722D01*
X70912Y-23661D01*
X70934Y-23588D01*
X70970Y-23511D01*
X70992Y-23471D01*
X71017Y-23431D01*
X71050Y-23395D01*
X71083Y-23359D01*
X71086Y-23355D01*
X71094Y-23351D01*
X71105Y-23340D01*
X71119Y-23329D01*
X71137Y-23315D01*
X71163Y-23300D01*
X71192Y-23282D01*
X71221Y-23264D01*
X71258Y-23246D01*
X71298Y-23227D01*
X71341Y-23213D01*
X71389Y-23198D01*
X71490Y-23177D01*
X71549Y-23173D01*
X71607Y-23169D01*
X71640D01*
X71662Y-23173D01*
D02*
G37*
G36*
X69725D02*
X69772Y-23180D01*
X69827Y-23191D01*
X69885Y-23206D01*
X69947Y-23224D01*
X70005Y-23253D01*
X70009D01*
X70013Y-23257D01*
X70031Y-23268D01*
X70060Y-23286D01*
X70096Y-23311D01*
X70136Y-23348D01*
X70180Y-23388D01*
X70220Y-23435D01*
X70260Y-23490D01*
X70264Y-23497D01*
X70278Y-23515D01*
X70293Y-23548D01*
X70318Y-23595D01*
X70340Y-23650D01*
X70369Y-23712D01*
X70395Y-23784D01*
X70417Y-23865D01*
Y-23868D01*
X70420Y-23875D01*
X70424Y-23886D01*
X70428Y-23904D01*
X70431Y-23926D01*
X70435Y-23952D01*
X70442Y-23985D01*
X70446Y-24021D01*
X70453Y-24061D01*
X70457Y-24105D01*
X70460Y-24156D01*
X70468Y-24207D01*
X70471Y-24265D01*
Y-24323D01*
X70475Y-24389D01*
Y-24458D01*
Y-24461D01*
Y-24476D01*
Y-24501D01*
Y-24531D01*
X70471Y-24571D01*
Y-24614D01*
X70468Y-24662D01*
X70464Y-24713D01*
X70453Y-24829D01*
X70435Y-24949D01*
X70413Y-25066D01*
X70398Y-25120D01*
X70380Y-25175D01*
Y-25179D01*
X70377Y-25186D01*
X70369Y-25200D01*
X70362Y-25218D01*
X70355Y-25244D01*
X70340Y-25269D01*
X70311Y-25331D01*
X70275Y-25397D01*
X70227Y-25470D01*
X70173Y-25535D01*
X70107Y-25597D01*
X70104D01*
X70100Y-25604D01*
X70089Y-25612D01*
X70074Y-25619D01*
X70056Y-25630D01*
X70038Y-25644D01*
X69984Y-25670D01*
X69918Y-25695D01*
X69841Y-25721D01*
X69750Y-25735D01*
X69652Y-25743D01*
X69616D01*
X69590Y-25739D01*
X69561Y-25735D01*
X69525Y-25728D01*
X69485Y-25721D01*
X69441Y-25710D01*
X69397Y-25695D01*
X69350Y-25681D01*
X69303Y-25659D01*
X69256Y-25633D01*
X69208Y-25604D01*
X69161Y-25568D01*
X69117Y-25528D01*
X69077Y-25484D01*
X69073Y-25481D01*
X69066Y-25470D01*
X69055Y-25451D01*
X69037Y-25422D01*
X69019Y-25390D01*
X69001Y-25346D01*
X68975Y-25295D01*
X68953Y-25237D01*
X68932Y-25171D01*
X68910Y-25095D01*
X68888Y-25011D01*
X68870Y-24916D01*
X68851Y-24814D01*
X68840Y-24705D01*
X68833Y-24585D01*
X68830Y-24458D01*
Y-24454D01*
Y-24440D01*
Y-24414D01*
Y-24385D01*
X68833Y-24345D01*
Y-24301D01*
X68837Y-24254D01*
X68840Y-24199D01*
X68851Y-24087D01*
X68870Y-23966D01*
X68892Y-23846D01*
X68906Y-23792D01*
X68921Y-23737D01*
Y-23733D01*
X68924Y-23726D01*
X68932Y-23712D01*
X68939Y-23693D01*
X68946Y-23668D01*
X68961Y-23642D01*
X68990Y-23581D01*
X69026Y-23515D01*
X69073Y-23446D01*
X69128Y-23377D01*
X69194Y-23318D01*
X69197D01*
X69201Y-23311D01*
X69212Y-23304D01*
X69226Y-23297D01*
X69245Y-23282D01*
X69266Y-23271D01*
X69321Y-23242D01*
X69387Y-23217D01*
X69463Y-23191D01*
X69554Y-23177D01*
X69652Y-23169D01*
X69685D01*
X69725Y-23173D01*
D02*
G37*
%LPC*%
G36*
X-28094Y26688D02*
X-28097D01*
X-28104D01*
X-28119D01*
X-28137Y26684D01*
X-28163D01*
X-28188Y26680D01*
X-28246Y26669D01*
X-28316Y26655D01*
X-28388Y26629D01*
X-28458Y26593D01*
X-28519Y26546D01*
X-28523D01*
X-28527Y26538D01*
X-28545Y26520D01*
X-28570Y26491D01*
X-28600Y26451D01*
X-28625Y26400D01*
X-28651Y26342D01*
X-28669Y26276D01*
X-28676Y26240D01*
Y26182D01*
X-28672Y26167D01*
X-28669Y26127D01*
X-28654Y26080D01*
X-28636Y26022D01*
X-28603Y25960D01*
X-28563Y25898D01*
X-28534Y25869D01*
X-28505Y25839D01*
X-28501D01*
X-28498Y25832D01*
X-28487Y25825D01*
X-28476Y25818D01*
X-28439Y25792D01*
X-28388Y25767D01*
X-28326Y25738D01*
X-28250Y25712D01*
X-28163Y25698D01*
X-28068Y25690D01*
X-28064D01*
X-28057D01*
X-28046D01*
X-28028Y25694D01*
X-28006D01*
X-27984Y25698D01*
X-27930Y25708D01*
X-27868Y25727D01*
X-27802Y25749D01*
X-27737Y25785D01*
X-27679Y25832D01*
X-27671Y25839D01*
X-27657Y25858D01*
X-27631Y25890D01*
X-27606Y25931D01*
X-27577Y25985D01*
X-27551Y26047D01*
X-27537Y26116D01*
X-27529Y26193D01*
Y26214D01*
X-27533Y26229D01*
X-27537Y26269D01*
X-27548Y26316D01*
X-27566Y26375D01*
X-27591Y26433D01*
X-27628Y26491D01*
X-27679Y26546D01*
X-27686Y26553D01*
X-27708Y26568D01*
X-27740Y26589D01*
X-27788Y26618D01*
X-27846Y26644D01*
X-27915Y26666D01*
X-27999Y26680D01*
X-28094Y26688D01*
D02*
G37*
G36*
Y24729D02*
X-28097D01*
X-28104D01*
X-28119D01*
X-28137Y24726D01*
X-28163D01*
X-28188Y24722D01*
X-28246Y24711D01*
X-28316Y24697D01*
X-28388Y24671D01*
X-28458Y24635D01*
X-28519Y24587D01*
X-28523D01*
X-28527Y24580D01*
X-28545Y24562D01*
X-28570Y24533D01*
X-28600Y24493D01*
X-28625Y24442D01*
X-28651Y24384D01*
X-28669Y24318D01*
X-28676Y24282D01*
Y24223D01*
X-28672Y24209D01*
X-28669Y24169D01*
X-28654Y24121D01*
X-28636Y24063D01*
X-28603Y24001D01*
X-28563Y23939D01*
X-28534Y23910D01*
X-28505Y23881D01*
X-28501D01*
X-28498Y23874D01*
X-28487Y23867D01*
X-28476Y23859D01*
X-28439Y23834D01*
X-28388Y23808D01*
X-28326Y23779D01*
X-28250Y23754D01*
X-28163Y23739D01*
X-28068Y23732D01*
X-28064D01*
X-28057D01*
X-28046D01*
X-28028Y23736D01*
X-28006D01*
X-27984Y23739D01*
X-27930Y23750D01*
X-27868Y23768D01*
X-27802Y23790D01*
X-27737Y23827D01*
X-27679Y23874D01*
X-27671Y23881D01*
X-27657Y23899D01*
X-27631Y23932D01*
X-27606Y23972D01*
X-27577Y24027D01*
X-27551Y24089D01*
X-27537Y24158D01*
X-27529Y24234D01*
Y24256D01*
X-27533Y24271D01*
X-27537Y24311D01*
X-27548Y24358D01*
X-27566Y24416D01*
X-27591Y24475D01*
X-27628Y24533D01*
X-27679Y24587D01*
X-27686Y24595D01*
X-27708Y24609D01*
X-27740Y24631D01*
X-27788Y24660D01*
X-27846Y24686D01*
X-27915Y24708D01*
X-27999Y24722D01*
X-28094Y24729D01*
D02*
G37*
G36*
Y21792D02*
X-28097D01*
X-28104D01*
X-28119D01*
X-28137Y21788D01*
X-28163D01*
X-28188Y21785D01*
X-28246Y21774D01*
X-28316Y21759D01*
X-28388Y21734D01*
X-28458Y21697D01*
X-28519Y21650D01*
X-28523D01*
X-28527Y21643D01*
X-28545Y21624D01*
X-28570Y21595D01*
X-28600Y21555D01*
X-28625Y21504D01*
X-28651Y21446D01*
X-28669Y21381D01*
X-28676Y21344D01*
Y21286D01*
X-28672Y21271D01*
X-28669Y21231D01*
X-28654Y21184D01*
X-28636Y21126D01*
X-28603Y21064D01*
X-28563Y21002D01*
X-28534Y20973D01*
X-28505Y20944D01*
X-28501D01*
X-28498Y20936D01*
X-28487Y20929D01*
X-28476Y20922D01*
X-28439Y20896D01*
X-28388Y20871D01*
X-28326Y20842D01*
X-28250Y20816D01*
X-28163Y20802D01*
X-28068Y20795D01*
X-28064D01*
X-28057D01*
X-28046D01*
X-28028Y20798D01*
X-28006D01*
X-27984Y20802D01*
X-27930Y20813D01*
X-27868Y20831D01*
X-27802Y20853D01*
X-27737Y20889D01*
X-27679Y20936D01*
X-27671Y20944D01*
X-27657Y20962D01*
X-27631Y20995D01*
X-27606Y21035D01*
X-27577Y21089D01*
X-27551Y21151D01*
X-27537Y21220D01*
X-27529Y21297D01*
Y21319D01*
X-27533Y21333D01*
X-27537Y21373D01*
X-27548Y21421D01*
X-27566Y21479D01*
X-27591Y21537D01*
X-27628Y21595D01*
X-27679Y21650D01*
X-27686Y21657D01*
X-27708Y21672D01*
X-27740Y21694D01*
X-27788Y21723D01*
X-27846Y21748D01*
X-27915Y21770D01*
X-27999Y21785D01*
X-28094Y21792D01*
D02*
G37*
G36*
X64924Y-23683D02*
X64130Y-24811D01*
X64924D01*
Y-23683D01*
D02*
G37*
G36*
X71614Y-23424D02*
X71585D01*
X71552Y-23431D01*
X71509Y-23439D01*
X71461Y-23453D01*
X71410Y-23471D01*
X71363Y-23501D01*
X71316Y-23540D01*
X71312Y-23544D01*
X71298Y-23559D01*
X71279Y-23584D01*
X71261Y-23617D01*
X71239Y-23657D01*
X71221Y-23704D01*
X71206Y-23755D01*
X71203Y-23813D01*
Y-23817D01*
Y-23821D01*
X71206Y-23843D01*
X71210Y-23875D01*
X71217Y-23915D01*
X71232Y-23963D01*
X71250Y-24010D01*
X71279Y-24061D01*
X71316Y-24105D01*
X71319Y-24108D01*
X71338Y-24123D01*
X71363Y-24141D01*
X71396Y-24159D01*
X71439Y-24181D01*
X71490Y-24199D01*
X71549Y-24214D01*
X71614Y-24217D01*
X71622D01*
X71643Y-24214D01*
X71676Y-24210D01*
X71720Y-24203D01*
X71767Y-24188D01*
X71814Y-24170D01*
X71865Y-24141D01*
X71909Y-24105D01*
X71913Y-24101D01*
X71927Y-24083D01*
X71946Y-24061D01*
X71967Y-24028D01*
X71989Y-23988D01*
X72007Y-23941D01*
X72022Y-23886D01*
X72026Y-23828D01*
Y-23824D01*
Y-23821D01*
Y-23799D01*
X72018Y-23766D01*
X72011Y-23726D01*
X71996Y-23683D01*
X71975Y-23635D01*
X71946Y-23588D01*
X71905Y-23540D01*
X71902Y-23537D01*
X71884Y-23522D01*
X71858Y-23504D01*
X71825Y-23482D01*
X71782Y-23460D01*
X71734Y-23442D01*
X71676Y-23428D01*
X71614Y-23424D01*
D02*
G37*
G36*
X71603Y-24469D02*
X71581D01*
X71567Y-24472D01*
X71527Y-24476D01*
X71476Y-24487D01*
X71418Y-24505D01*
X71359Y-24531D01*
X71298Y-24567D01*
X71243Y-24614D01*
X71236Y-24622D01*
X71221Y-24640D01*
X71199Y-24673D01*
X71174Y-24713D01*
X71145Y-24767D01*
X71123Y-24829D01*
X71108Y-24898D01*
X71101Y-24975D01*
Y-24982D01*
Y-24996D01*
X71105Y-25022D01*
X71108Y-25055D01*
X71115Y-25095D01*
X71126Y-25139D01*
X71141Y-25182D01*
X71159Y-25229D01*
X71163Y-25233D01*
X71170Y-25251D01*
X71185Y-25273D01*
X71206Y-25299D01*
X71232Y-25331D01*
X71265Y-25364D01*
X71301Y-25393D01*
X71345Y-25422D01*
X71352Y-25426D01*
X71367Y-25433D01*
X71392Y-25444D01*
X71425Y-25455D01*
X71465Y-25466D01*
X71512Y-25477D01*
X71563Y-25484D01*
X71614Y-25488D01*
X71636D01*
X71651Y-25484D01*
X71694Y-25481D01*
X71745Y-25470D01*
X71803Y-25451D01*
X71865Y-25430D01*
X71924Y-25393D01*
X71982Y-25346D01*
X71989Y-25339D01*
X72004Y-25321D01*
X72029Y-25288D01*
X72055Y-25248D01*
X72080Y-25197D01*
X72106Y-25135D01*
X72120Y-25062D01*
X72127Y-24986D01*
Y-24982D01*
Y-24975D01*
Y-24964D01*
X72124Y-24949D01*
X72120Y-24909D01*
X72109Y-24855D01*
X72091Y-24800D01*
X72066Y-24738D01*
X72029Y-24676D01*
X71978Y-24618D01*
X71971Y-24611D01*
X71953Y-24596D01*
X71920Y-24571D01*
X71876Y-24542D01*
X71822Y-24516D01*
X71756Y-24490D01*
X71683Y-24476D01*
X71603Y-24469D01*
D02*
G37*
G36*
X69649Y-23424D02*
X69627D01*
X69612Y-23428D01*
X69572Y-23435D01*
X69525Y-23446D01*
X69470Y-23468D01*
X69412Y-23501D01*
X69383Y-23522D01*
X69354Y-23544D01*
X69328Y-23573D01*
X69303Y-23606D01*
Y-23610D01*
X69296Y-23617D01*
X69288Y-23631D01*
X69277Y-23650D01*
X69266Y-23679D01*
X69252Y-23712D01*
X69241Y-23752D01*
X69226Y-23799D01*
X69212Y-23854D01*
X69197Y-23915D01*
X69183Y-23985D01*
X69172Y-24061D01*
X69161Y-24148D01*
X69154Y-24243D01*
X69150Y-24345D01*
X69146Y-24458D01*
Y-24465D01*
Y-24483D01*
Y-24516D01*
X69150Y-24560D01*
Y-24607D01*
X69154Y-24665D01*
X69157Y-24727D01*
X69165Y-24793D01*
X69183Y-24935D01*
X69194Y-25004D01*
X69208Y-25069D01*
X69223Y-25131D01*
X69245Y-25189D01*
X69266Y-25240D01*
X69292Y-25284D01*
Y-25288D01*
X69299Y-25291D01*
X69317Y-25317D01*
X69350Y-25350D01*
X69390Y-25386D01*
X69445Y-25422D01*
X69507Y-25455D01*
X69576Y-25481D01*
X69612Y-25484D01*
X69652Y-25488D01*
X69674D01*
X69689Y-25484D01*
X69725Y-25477D01*
X69776Y-25462D01*
X69831Y-25437D01*
X69893Y-25401D01*
X69922Y-25379D01*
X69951Y-25350D01*
X69980Y-25321D01*
X70009Y-25284D01*
Y-25280D01*
X70016Y-25273D01*
X70024Y-25262D01*
X70031Y-25244D01*
X70045Y-25218D01*
X70056Y-25186D01*
X70071Y-25149D01*
X70085Y-25106D01*
X70096Y-25051D01*
X70111Y-24993D01*
X70126Y-24924D01*
X70136Y-24851D01*
X70144Y-24764D01*
X70151Y-24673D01*
X70158Y-24571D01*
Y-24458D01*
Y-24454D01*
Y-24451D01*
Y-24432D01*
Y-24399D01*
X70155Y-24356D01*
Y-24308D01*
X70151Y-24250D01*
X70147Y-24188D01*
X70140Y-24119D01*
X70122Y-23981D01*
X70111Y-23912D01*
X70096Y-23846D01*
X70082Y-23784D01*
X70060Y-23726D01*
X70038Y-23675D01*
X70013Y-23631D01*
Y-23628D01*
X70005Y-23624D01*
X69998Y-23613D01*
X69987Y-23599D01*
X69954Y-23566D01*
X69914Y-23526D01*
X69860Y-23490D01*
X69798Y-23457D01*
X69765Y-23442D01*
X69729Y-23431D01*
X69689Y-23428D01*
X69649Y-23424D01*
D02*
G37*
%LPD*%
D16*
X-32000Y6000D02*
X-30000Y-0D01*
X-28000Y6000D01*
X-30000Y78700D02*
X-28000Y72700D01*
X-32000D02*
X-30000Y78700D01*
Y-0D02*
Y17156D01*
Y58344D02*
Y78700D01*
X-31000Y-0D02*
X-1190D01*
X-31000Y78700D02*
X-1300D01*
X110Y-22100D02*
X6110Y-20100D01*
X110Y-22100D02*
X6110Y-24100D01*
X163734D02*
X169734Y-22100D01*
X163734Y-20100D02*
X169734Y-22100D01*
X110D02*
X62228D01*
X104416D02*
X169734D01*
X110Y-23100D02*
Y-1300D01*
X169734Y-23100D02*
Y-1300D01*
M02*
