G04*
G04 #@! TF.GenerationSoftware,Altium Limited,Altium Designer,20.0.12 (288)*
G04*
G04 Layer_Physical_Order=2*
G04 Layer_Color=16711680*
%FSLAX25Y25*%
%MOIN*%
G70*
G01*
G75*
%ADD16C,0.01000*%
%ADD43R,0.11811X0.05512*%
%ADD54C,0.03937*%
%ADD59O,0.05906X0.07087*%
G04:AMPARAMS|DCode=60|XSize=59.06mil|YSize=70.87mil|CornerRadius=0mil|HoleSize=0mil|Usage=FLASHONLY|Rotation=180.000|XOffset=0mil|YOffset=0mil|HoleType=Round|Shape=Octagon|*
%AMOCTAGOND60*
4,1,8,0.01476,-0.03543,-0.01476,-0.03543,-0.02953,-0.02067,-0.02953,0.02067,-0.01476,0.03543,0.01476,0.03543,0.02953,0.02067,0.02953,-0.02067,0.01476,-0.03543,0.0*
%
%ADD60OCTAGOND60*%

%ADD61C,0.02953*%
%ADD62O,0.07082X0.03937*%
%ADD63O,0.08263X0.03937*%
%ADD64C,0.01968*%
G36*
X25743Y69922D02*
X25667Y69876D01*
X25599Y69808D01*
X25541Y69720D01*
X25492Y69610D01*
X25451Y69479D01*
X25420Y69326D01*
X25398Y69153D01*
X25384Y68958D01*
X25380Y68742D01*
X24380Y68668D01*
X24375Y68866D01*
X24362Y69042D01*
X24339Y69196D01*
X24307Y69327D01*
X24267Y69436D01*
X24217Y69522D01*
X24158Y69586D01*
X24090Y69628D01*
X24013Y69647D01*
X23927Y69644D01*
X25828Y69947D01*
X25743Y69922D01*
D02*
G37*
G36*
X155932Y61875D02*
X155923Y61955D01*
X155895Y62028D01*
X155849Y62092D01*
X155784Y62147D01*
X155701Y62194D01*
X155599Y62233D01*
X155479Y62262D01*
X155340Y62284D01*
X155182Y62296D01*
X155006Y62301D01*
Y63301D01*
X155182Y63305D01*
X155340Y63318D01*
X155479Y63339D01*
X155599Y63369D01*
X155701Y63407D01*
X155784Y63454D01*
X155849Y63510D01*
X155895Y63573D01*
X155923Y63646D01*
X155932Y63727D01*
Y61875D01*
D02*
G37*
G36*
Y53523D02*
X155923Y53604D01*
X155895Y53676D01*
X155849Y53740D01*
X155784Y53795D01*
X155701Y53842D01*
X155599Y53881D01*
X155479Y53910D01*
X155340Y53932D01*
X155182Y53945D01*
X155006Y53949D01*
Y54949D01*
X155182Y54953D01*
X155340Y54966D01*
X155479Y54987D01*
X155599Y55017D01*
X155701Y55055D01*
X155784Y55102D01*
X155849Y55158D01*
X155895Y55222D01*
X155923Y55294D01*
X155932Y55375D01*
Y53523D01*
D02*
G37*
G36*
X107631Y50006D02*
X107591Y50042D01*
X107543Y50074D01*
X107487Y50103D01*
X107425Y50127D01*
X107355Y50148D01*
X107278Y50165D01*
X107193Y50178D01*
X107102Y50188D01*
X106896Y50195D01*
Y51195D01*
X107002Y51197D01*
X107193Y51212D01*
X107278Y51225D01*
X107355Y51242D01*
X107425Y51263D01*
X107487Y51288D01*
X107543Y51316D01*
X107591Y51348D01*
X107631Y51384D01*
Y50006D01*
D02*
G37*
G36*
X92828Y49635D02*
X92845Y49445D01*
X92860Y49361D01*
X92878Y49285D01*
X92901Y49216D01*
X92928Y49155D01*
X92959Y49101D01*
X92995Y49055D01*
X93034Y49016D01*
X91660Y48915D01*
X91691Y48957D01*
X91720Y49005D01*
X91745Y49061D01*
X91766Y49125D01*
X91785Y49195D01*
X91800Y49273D01*
X91811Y49358D01*
X91825Y49549D01*
X91826Y49656D01*
X92826Y49741D01*
X92828Y49635D01*
D02*
G37*
G36*
X139719Y47235D02*
X139645Y47158D01*
X139527Y47013D01*
X139482Y46944D01*
X139447Y46878D01*
X139422Y46815D01*
X139407Y46755D01*
X139400Y46697D01*
X139404Y46642D01*
X139417Y46590D01*
X138179Y47194D01*
X138207Y47206D01*
X138240Y47225D01*
X138279Y47252D01*
X138375Y47327D01*
X138493Y47431D01*
X138711Y47642D01*
X139719Y47235D01*
D02*
G37*
G36*
X155932Y45969D02*
X155922Y46064D01*
X155892Y46149D01*
X155842Y46224D01*
X155772Y46289D01*
X155682Y46344D01*
X155572Y46389D01*
X155442Y46424D01*
X155292Y46449D01*
X155122Y46464D01*
X154932Y46469D01*
Y47469D01*
X155122Y47474D01*
X155292Y47489D01*
X155442Y47514D01*
X155572Y47549D01*
X155682Y47594D01*
X155772Y47649D01*
X155842Y47714D01*
X155892Y47789D01*
X155922Y47874D01*
X155932Y47969D01*
Y45969D01*
D02*
G37*
G36*
X167701Y66348D02*
X155320D01*
Y63972D01*
X155264Y63963D01*
X155148Y63954D01*
X154990Y63950D01*
X154864Y63894D01*
X154577Y63837D01*
X154213Y63594D01*
X154213Y63594D01*
X152341Y61722D01*
X151196D01*
X151061Y61923D01*
X150537Y62274D01*
X149919Y62397D01*
X149301Y62274D01*
X148777Y61923D01*
X148427Y61400D01*
X148304Y60781D01*
X148427Y60163D01*
X148777Y59639D01*
X149301Y59289D01*
X149919Y59166D01*
X150537Y59289D01*
X150821Y59478D01*
X152805D01*
X152806Y59478D01*
X153235Y59564D01*
X153599Y59807D01*
X154859Y61067D01*
X155320Y60875D01*
Y59636D01*
X167701D01*
Y58474D01*
X155320D01*
Y55620D01*
X155264Y55611D01*
X155148Y55602D01*
X154990Y55598D01*
X154864Y55542D01*
X154577Y55485D01*
X154213Y55242D01*
X154213Y55242D01*
X151226Y52255D01*
X150983Y51891D01*
X150897Y51461D01*
X150897Y51461D01*
Y48497D01*
X138776Y36376D01*
X138508Y36555D01*
X137890Y36678D01*
X137271Y36555D01*
X136748Y36205D01*
X136397Y35681D01*
X136274Y35063D01*
X136392Y34470D01*
X136396Y34383D01*
X136139Y33970D01*
X128737D01*
X116288Y46420D01*
X116293Y46444D01*
X116170Y47062D01*
X115820Y47586D01*
X115296Y47936D01*
X114678Y48059D01*
X114060Y47936D01*
X113536Y47586D01*
X113185Y47062D01*
X113063Y46444D01*
X113185Y45826D01*
X113536Y45302D01*
X114060Y44952D01*
X114678Y44829D01*
X114702Y44833D01*
X127480Y32056D01*
X127480Y32056D01*
X127844Y31813D01*
X128273Y31727D01*
X128273Y31727D01*
X139396D01*
X139587Y31265D01*
X133963Y25641D01*
X133883Y25657D01*
X133265Y25534D01*
X132741Y25184D01*
X132390Y24660D01*
X132267Y24042D01*
X132390Y23423D01*
X132741Y22899D01*
X133265Y22549D01*
X133883Y22426D01*
X134501Y22549D01*
X135025Y22899D01*
X135375Y23423D01*
X135489Y23994D01*
X149812Y38318D01*
X150856D01*
X150905Y37818D01*
X150734Y37784D01*
X150210Y37434D01*
X149860Y36910D01*
X149737Y36292D01*
X149860Y35673D01*
X149924Y35578D01*
X149777Y35039D01*
X149253Y34689D01*
X148903Y34165D01*
X148780Y33547D01*
X148799Y33453D01*
X140298Y24952D01*
X139748Y24843D01*
X139224Y24493D01*
X138874Y23968D01*
X138751Y23350D01*
X138874Y22732D01*
X139224Y22208D01*
X139748Y21858D01*
X140366Y21735D01*
X140984Y21858D01*
X141508Y22208D01*
X141858Y22732D01*
X141981Y23350D01*
X141963Y23444D01*
X150463Y31945D01*
X151014Y32054D01*
X151184Y32168D01*
X151684Y31901D01*
Y20447D01*
X151663Y20434D01*
X151313Y19909D01*
X151190Y19291D01*
X151313Y18673D01*
X151663Y18149D01*
X152187Y17799D01*
X152806Y17676D01*
X153424Y17799D01*
X153948Y18149D01*
X154298Y18673D01*
X154421Y19291D01*
X154298Y19909D01*
X153948Y20434D01*
X153927Y20447D01*
Y30375D01*
X155320D01*
Y28140D01*
X167701D01*
Y26978D01*
X155320D01*
Y20266D01*
X167701D01*
Y19104D01*
X155320D01*
Y12392D01*
X167701D01*
Y2031D01*
X167688Y2000D01*
X1654Y1969D01*
X1300Y2322D01*
Y76607D01*
X1393Y76700D01*
X5386D01*
X5632Y76200D01*
X5256Y75709D01*
X4857Y74748D01*
X4721Y73716D01*
Y73625D01*
X8708D01*
Y73125D01*
X9208D01*
Y68614D01*
X9740Y68684D01*
X10702Y69082D01*
X11528Y69715D01*
X12161Y70541D01*
X12559Y71503D01*
X12595Y71774D01*
X13099D01*
X13121Y71607D01*
X13479Y70743D01*
X14049Y70001D01*
X14791Y69431D01*
X15461Y69154D01*
Y67799D01*
X15461Y67799D01*
X15546Y67370D01*
X15789Y67006D01*
X18661Y64135D01*
X18661Y64135D01*
X19025Y63891D01*
X19454Y63806D01*
X19454Y63806D01*
X37480D01*
X37480Y63806D01*
X37734Y63857D01*
X37980Y63396D01*
X36470Y61886D01*
X36058Y61349D01*
X35800Y60724D01*
X35711Y60054D01*
Y53589D01*
X35800Y52919D01*
X36058Y52294D01*
X36470Y51757D01*
X37007Y51345D01*
X37631Y51087D01*
X38302Y50998D01*
X38972Y51087D01*
X39597Y51345D01*
X40134Y51757D01*
X40545Y52294D01*
X40804Y52919D01*
X40893Y53589D01*
Y58981D01*
X45375Y63464D01*
X45787Y64000D01*
X46046Y64625D01*
X46134Y65295D01*
X46046Y65966D01*
X45787Y66591D01*
X45375Y67127D01*
X44839Y67539D01*
X44585Y67644D01*
X44684Y68144D01*
X45682D01*
X49692Y64135D01*
X49692Y64135D01*
X50056Y63891D01*
X50485Y63806D01*
X50485Y63806D01*
X78264D01*
X83582Y58487D01*
X83252Y58111D01*
X82785Y58469D01*
X82160Y58728D01*
X81490Y58816D01*
X51951D01*
X51281Y58728D01*
X50656Y58469D01*
X50119Y58057D01*
X49708Y57521D01*
X49449Y56896D01*
X49360Y56226D01*
X49449Y55555D01*
X49708Y54930D01*
X50119Y54394D01*
X50656Y53982D01*
X51281Y53723D01*
X51951Y53635D01*
X80417D01*
X83415Y50637D01*
Y47533D01*
X82289Y46408D01*
X81877Y45871D01*
X81619Y45246D01*
X81530Y44576D01*
X81619Y43905D01*
X81877Y43281D01*
X82289Y42744D01*
X82826Y42332D01*
X83450Y42074D01*
X84121Y41985D01*
X84469Y42031D01*
X84703Y41557D01*
X84031Y40885D01*
X77500D01*
X77440Y40913D01*
X77256Y40920D01*
X77203Y40925D01*
X77155Y40933D01*
X77120Y40940D01*
X77099Y40946D01*
X77096Y40947D01*
X77083Y40957D01*
X77075Y40958D01*
X77066Y40963D01*
X77043Y40964D01*
X77032Y40967D01*
X77027Y40968D01*
X76596Y41256D01*
X75978Y41379D01*
X75360Y41256D01*
X74836Y40906D01*
X74486Y40382D01*
X74363Y39764D01*
X74486Y39146D01*
X74836Y38622D01*
X75360Y38271D01*
X75978Y38148D01*
X76596Y38271D01*
X77027Y38559D01*
X77032Y38561D01*
X77043Y38563D01*
X77066Y38565D01*
X77075Y38569D01*
X77083Y38571D01*
X77096Y38580D01*
X77099Y38581D01*
X77120Y38587D01*
X77155Y38595D01*
X77195Y38601D01*
X77342Y38613D01*
X77428Y38614D01*
X77568Y38529D01*
X77662Y37916D01*
X76261Y36515D01*
X76200Y36492D01*
X76065Y36367D01*
X76023Y36333D01*
X75984Y36304D01*
X75954Y36285D01*
X75935Y36275D01*
X75932Y36274D01*
X75916Y36270D01*
X75909Y36266D01*
X75900Y36263D01*
X75882Y36248D01*
X75873Y36241D01*
X75868Y36239D01*
X75360Y36138D01*
X74836Y35788D01*
X74486Y35264D01*
X74363Y34646D01*
X74486Y34027D01*
X74836Y33503D01*
X75360Y33153D01*
X75978Y33030D01*
X76596Y33153D01*
X77120Y33503D01*
X77470Y34027D01*
X77571Y34535D01*
X77574Y34540D01*
X77580Y34550D01*
X77595Y34567D01*
X77598Y34576D01*
X77603Y34584D01*
X77606Y34600D01*
X77607Y34602D01*
X77618Y34621D01*
X77637Y34651D01*
X77661Y34684D01*
X77756Y34796D01*
X77816Y34858D01*
X77842Y34923D01*
X79918Y36999D01*
X87255D01*
X87314Y36972D01*
X87499Y36965D01*
X87552Y36959D01*
X87600Y36952D01*
X87635Y36944D01*
X87656Y36938D01*
X87658Y36937D01*
X87672Y36928D01*
X87680Y36926D01*
X87689Y36922D01*
X87712Y36920D01*
X87723Y36918D01*
X87728Y36916D01*
X88159Y36628D01*
X88777Y36505D01*
X89395Y36628D01*
X89919Y36978D01*
X90269Y37502D01*
X90392Y38120D01*
X90269Y38739D01*
X89919Y39263D01*
X89395Y39613D01*
X88777Y39736D01*
X88159Y39613D01*
X87728Y39325D01*
X87723Y39323D01*
X87712Y39321D01*
X87689Y39319D01*
X87680Y39315D01*
X87672Y39313D01*
X87658Y39304D01*
X87656Y39303D01*
X87635Y39297D01*
X87600Y39289D01*
X87560Y39283D01*
X87414Y39271D01*
X87327Y39270D01*
X87263Y39242D01*
X86213D01*
X86022Y39704D01*
X89241Y42924D01*
X90042D01*
X90102Y42896D01*
X90286Y42889D01*
X90340Y42884D01*
X90387Y42876D01*
X90422Y42869D01*
X90443Y42863D01*
X90446Y42862D01*
X90459Y42853D01*
X90468Y42851D01*
X90476Y42846D01*
X90499Y42845D01*
X90510Y42842D01*
X90516Y42840D01*
X90946Y42553D01*
X91564Y42430D01*
X92182Y42553D01*
X92706Y42903D01*
X93056Y43427D01*
X93180Y44045D01*
X93056Y44663D01*
X92706Y45187D01*
X92182Y45538D01*
X91564Y45660D01*
X90946Y45538D01*
X90516Y45250D01*
X90510Y45248D01*
X90499Y45246D01*
X90476Y45244D01*
X90468Y45240D01*
X90459Y45238D01*
X90446Y45229D01*
X90443Y45228D01*
X90422Y45222D01*
X90387Y45214D01*
X90347Y45208D01*
X90201Y45196D01*
X90114Y45195D01*
X90051Y45167D01*
X88777D01*
X88777Y45167D01*
X88433Y45608D01*
X88508Y45790D01*
X88596Y46460D01*
Y51710D01*
X88508Y52380D01*
X88249Y53005D01*
X87891Y53472D01*
X88267Y53802D01*
X91205Y50865D01*
Y49731D01*
X91177Y49666D01*
X91176Y49577D01*
X91165Y49424D01*
X91159Y49379D01*
X91151Y49338D01*
X91144Y49312D01*
X91140Y49301D01*
X91130Y49283D01*
X91129Y49275D01*
X91127Y49270D01*
X91126Y49256D01*
X91123Y49232D01*
X91112Y49192D01*
X90906Y48883D01*
X90783Y48265D01*
X90906Y47646D01*
X91256Y47122D01*
X91780Y46772D01*
X92398Y46649D01*
X93016Y46772D01*
X93540Y47122D01*
X93891Y47646D01*
X94013Y48265D01*
X93891Y48883D01*
X93540Y49407D01*
X93523Y49419D01*
X93521Y49426D01*
X93513Y49440D01*
X93511Y49448D01*
X93506Y49455D01*
X93503Y49465D01*
X93496Y49494D01*
X93490Y49529D01*
X93477Y49670D01*
X93476Y49754D01*
X93467Y49775D01*
X93474Y49796D01*
X93448Y49846D01*
Y50405D01*
X93910Y50596D01*
X94604Y49902D01*
X94968Y49659D01*
X95397Y49574D01*
X95397Y49574D01*
X106812D01*
X106872Y49546D01*
X107056Y49539D01*
X107110Y49534D01*
X107158Y49526D01*
X107192Y49519D01*
X107213Y49512D01*
X107216Y49512D01*
X107229Y49502D01*
X107238Y49501D01*
X107246Y49496D01*
X107270Y49494D01*
X107281Y49492D01*
X107286Y49490D01*
X107716Y49203D01*
X108334Y49080D01*
X108952Y49203D01*
X109476Y49553D01*
X109827Y50077D01*
X109950Y50695D01*
X109827Y51313D01*
X109476Y51837D01*
X108952Y52188D01*
X108334Y52311D01*
X107716Y52188D01*
X107286Y51900D01*
X107281Y51898D01*
X107270Y51896D01*
X107246Y51894D01*
X107238Y51890D01*
X107229Y51888D01*
X107216Y51879D01*
X107213Y51878D01*
X107192Y51872D01*
X107158Y51864D01*
X107117Y51858D01*
X106971Y51846D01*
X106885Y51845D01*
X106821Y51817D01*
X95861D01*
X79368Y68311D01*
X79004Y68554D01*
X78574Y68639D01*
X78574Y68639D01*
X52490D01*
X48746Y72383D01*
X48382Y72626D01*
X47953Y72712D01*
X47952Y72712D01*
X40761D01*
X40761Y72712D01*
X40332Y72626D01*
X39968Y72383D01*
X39968Y72383D01*
X35774Y68188D01*
X26945D01*
X26227Y68907D01*
X26236Y69131D01*
X26310Y69479D01*
X26990Y70001D01*
X27560Y70743D01*
X27918Y71607D01*
X28040Y72535D01*
Y73716D01*
X27918Y74643D01*
X27560Y75507D01*
X27028Y76200D01*
X27119Y76628D01*
X27143Y76700D01*
X29332D01*
X29524Y76238D01*
X28778Y75492D01*
Y70758D01*
X30554Y68982D01*
X34107D01*
X35883Y70758D01*
Y75492D01*
X35137Y76238D01*
X35329Y76700D01*
X116841D01*
X117088Y76200D01*
X116711Y75709D01*
X116313Y74748D01*
X116177Y73716D01*
Y73625D01*
X120164D01*
Y73125D01*
X120664D01*
Y68614D01*
X121196Y68684D01*
X122157Y69082D01*
X122983Y69715D01*
X123617Y70541D01*
X124015Y71503D01*
X124050Y71773D01*
X124555D01*
X124577Y71607D01*
X124935Y70743D01*
X125071Y70566D01*
Y70356D01*
X121479Y66764D01*
X93300D01*
X92629Y66676D01*
X92005Y66417D01*
X91468Y66005D01*
X91056Y65469D01*
X90798Y64844D01*
X90709Y64173D01*
X90798Y63503D01*
X91056Y62878D01*
X91468Y62341D01*
X92005Y61930D01*
X92629Y61671D01*
X93300Y61582D01*
X122552D01*
X123222Y61671D01*
X123847Y61930D01*
X124384Y62341D01*
X129493Y67451D01*
X129905Y67988D01*
X130164Y68612D01*
X130252Y69283D01*
Y69755D01*
X130572Y70001D01*
X131141Y70743D01*
X131499Y71607D01*
X131621Y72535D01*
Y73716D01*
X131499Y74643D01*
X131141Y75507D01*
X130610Y76200D01*
X130700Y76628D01*
X130725Y76700D01*
X133225D01*
X133250Y76628D01*
X133340Y76200D01*
X132809Y75507D01*
X132451Y74643D01*
X132328Y73716D01*
Y72535D01*
X132451Y71607D01*
X132809Y70743D01*
X133378Y70001D01*
X134120Y69431D01*
X134790Y69154D01*
Y65295D01*
X134790Y65295D01*
X134876Y64866D01*
X135119Y64502D01*
X137753Y61868D01*
Y51122D01*
X137539Y50908D01*
X137045Y50810D01*
X136521Y50460D01*
X136171Y49936D01*
X136048Y49318D01*
X136171Y48700D01*
X136521Y48176D01*
X137045Y47826D01*
X137073Y47820D01*
X137155Y47696D01*
X137261Y47273D01*
X136998Y46878D01*
X136875Y46260D01*
X136998Y45642D01*
X137348Y45118D01*
X137872Y44767D01*
X138490Y44645D01*
X139108Y44767D01*
X139632Y45118D01*
X139982Y45642D01*
X140105Y46260D01*
X140038Y46601D01*
X140039Y46608D01*
X140043Y46614D01*
X140053Y46630D01*
X140133Y46729D01*
X140188Y46786D01*
X140213Y46850D01*
X144579Y51217D01*
X144579Y51217D01*
X144822Y51580D01*
X144907Y52010D01*
Y68982D01*
X145562D01*
X147339Y70758D01*
Y75492D01*
X146593Y76238D01*
X146784Y76700D01*
X167701D01*
Y66348D01*
D02*
G37*
G36*
X90861Y43356D02*
X90821Y43392D01*
X90773Y43424D01*
X90717Y43453D01*
X90655Y43477D01*
X90585Y43498D01*
X90508Y43515D01*
X90423Y43528D01*
X90331Y43538D01*
X90126Y43545D01*
Y44545D01*
X90232Y44547D01*
X90423Y44562D01*
X90508Y44576D01*
X90585Y44592D01*
X90655Y44613D01*
X90717Y44638D01*
X90773Y44666D01*
X90821Y44698D01*
X90861Y44734D01*
Y43356D01*
D02*
G37*
G36*
X76722Y40417D02*
X76770Y40385D01*
X76825Y40356D01*
X76888Y40332D01*
X76957Y40311D01*
X77035Y40294D01*
X77119Y40281D01*
X77211Y40271D01*
X77416Y40264D01*
Y39264D01*
X77310Y39262D01*
X77119Y39247D01*
X77035Y39233D01*
X76957Y39217D01*
X76888Y39196D01*
X76825Y39171D01*
X76770Y39143D01*
X76722Y39111D01*
X76681Y39075D01*
Y40453D01*
X76722Y40417D01*
D02*
G37*
G36*
X155932Y38439D02*
X155922Y38534D01*
X155892Y38619D01*
X155842Y38694D01*
X155772Y38759D01*
X155682Y38814D01*
X155572Y38859D01*
X155442Y38894D01*
X155292Y38919D01*
X155122Y38934D01*
X154932Y38939D01*
Y39939D01*
X155122Y39944D01*
X155292Y39959D01*
X155442Y39984D01*
X155572Y40019D01*
X155682Y40064D01*
X155772Y40119D01*
X155842Y40184D01*
X155892Y40259D01*
X155922Y40344D01*
X155932Y40439D01*
Y38439D01*
D02*
G37*
G36*
X88074Y37432D02*
X88033Y37468D01*
X87985Y37500D01*
X87930Y37528D01*
X87867Y37552D01*
X87797Y37573D01*
X87720Y37590D01*
X87636Y37604D01*
X87544Y37613D01*
X87338Y37620D01*
Y38620D01*
X87445Y38622D01*
X87636Y38638D01*
X87720Y38651D01*
X87797Y38668D01*
X87867Y38689D01*
X87930Y38713D01*
X87985Y38741D01*
X88033Y38774D01*
X88074Y38809D01*
Y37432D01*
D02*
G37*
G36*
X152311Y36041D02*
X152313Y35984D01*
X152324Y35924D01*
X152345Y35861D01*
X152374Y35797D01*
X152411Y35730D01*
X152458Y35660D01*
X152514Y35588D01*
X152578Y35514D01*
X152652Y35437D01*
X151785Y34890D01*
X151708Y34965D01*
X151498Y35149D01*
X151436Y35195D01*
X151321Y35268D01*
X151269Y35293D01*
X151221Y35312D01*
X151177Y35323D01*
X152317Y36097D01*
X152311Y36041D01*
D02*
G37*
G36*
X77349Y35309D02*
X77275Y35233D01*
X77151Y35087D01*
X77100Y35018D01*
X77058Y34951D01*
X77023Y34887D01*
X76996Y34826D01*
X76977Y34766D01*
X76966Y34710D01*
X76962Y34655D01*
X75988Y35630D01*
X76042Y35633D01*
X76099Y35645D01*
X76158Y35664D01*
X76220Y35690D01*
X76284Y35725D01*
X76350Y35768D01*
X76419Y35818D01*
X76491Y35876D01*
X76642Y36016D01*
X77349Y35309D01*
D02*
G37*
%LPC*%
G36*
X119664Y72625D02*
X116177D01*
Y72535D01*
X116313Y71503D01*
X116711Y70541D01*
X117345Y69715D01*
X118170Y69082D01*
X119132Y68684D01*
X119664Y68614D01*
Y72625D01*
D02*
G37*
G36*
X8208D02*
X4721D01*
Y72535D01*
X4857Y71503D01*
X5256Y70541D01*
X5889Y69715D01*
X6715Y69082D01*
X7677Y68684D01*
X8208Y68614D01*
Y72625D01*
D02*
G37*
G36*
X11807Y61683D02*
X10734D01*
Y59189D01*
X14735D01*
X14699Y59464D01*
X14400Y60186D01*
X13924Y60807D01*
X13304Y61282D01*
X12582Y61581D01*
X11807Y61683D01*
D02*
G37*
G36*
X9734D02*
X8662D01*
X7887Y61581D01*
X7165Y61282D01*
X6545Y60807D01*
X6069Y60186D01*
X5770Y59464D01*
X5734Y59189D01*
X9734D01*
Y61683D01*
D02*
G37*
G36*
X28736Y61683D02*
X27073D01*
Y59189D01*
X31664D01*
X31628Y59464D01*
X31329Y60186D01*
X30853Y60806D01*
X30233Y61282D01*
X29511Y61581D01*
X28736Y61683D01*
D02*
G37*
G36*
X26073D02*
X24410D01*
X23635Y61581D01*
X22913Y61282D01*
X22293Y60806D01*
X21817Y60186D01*
X21518Y59464D01*
X21482Y59189D01*
X26073D01*
Y61683D01*
D02*
G37*
G36*
X14735Y58189D02*
X10734D01*
Y55695D01*
X11807D01*
X12582Y55797D01*
X13304Y56096D01*
X13924Y56572D01*
X14400Y57192D01*
X14699Y57914D01*
X14735Y58189D01*
D02*
G37*
G36*
X9734D02*
X5734D01*
X5770Y57914D01*
X6069Y57192D01*
X6545Y56572D01*
X7165Y56096D01*
X7887Y55797D01*
X8662Y55695D01*
X9734D01*
Y58189D01*
D02*
G37*
G36*
X31664Y58189D02*
X27073D01*
Y55695D01*
X28736D01*
X29511Y55797D01*
X30233Y56096D01*
X30853Y56572D01*
X31329Y57192D01*
X31628Y57914D01*
X31664Y58189D01*
D02*
G37*
G36*
X26073D02*
X21482D01*
X21518Y57914D01*
X21817Y57192D01*
X22293Y56572D01*
X22913Y56096D01*
X23635Y55797D01*
X24410Y55695D01*
X26073D01*
Y58189D01*
D02*
G37*
G36*
X133667Y58863D02*
X133049Y58740D01*
X132525Y58390D01*
X132175Y57866D01*
X132052Y57247D01*
X132175Y56629D01*
X132525Y56105D01*
X133049Y55755D01*
X133667Y55632D01*
X134285Y55755D01*
X134809Y56105D01*
X135159Y56629D01*
X135282Y57247D01*
X135159Y57866D01*
X134809Y58390D01*
X134285Y58740D01*
X133667Y58863D01*
D02*
G37*
G36*
X24605Y55046D02*
X23844Y54895D01*
X23200Y54464D01*
X22769Y53819D01*
X22618Y53059D01*
X22769Y52298D01*
X23200Y51654D01*
X23844Y51223D01*
X24605Y51072D01*
X25365Y51223D01*
X26010Y51654D01*
X26441Y52298D01*
X26592Y53059D01*
X26441Y53819D01*
X26010Y54464D01*
X25365Y54895D01*
X24605Y55046D01*
D02*
G37*
G36*
X64993Y53025D02*
X64375Y52903D01*
X63851Y52552D01*
X63500Y52028D01*
X63377Y51410D01*
X63500Y50792D01*
X63851Y50268D01*
X64375Y49918D01*
X64882Y49817D01*
X64887Y49814D01*
X64897Y49808D01*
X64914Y49793D01*
X64924Y49790D01*
X64931Y49786D01*
X64947Y49782D01*
X64949Y49781D01*
X64968Y49771D01*
X64998Y49752D01*
X65031Y49728D01*
X65143Y49632D01*
X65205Y49572D01*
X65270Y49547D01*
X70144Y44672D01*
Y33986D01*
X70144Y33986D01*
X70230Y33557D01*
X70473Y33193D01*
X73484Y30182D01*
X73848Y29939D01*
X74277Y29853D01*
X74277Y29853D01*
X87451D01*
X87451Y29853D01*
X87881Y29939D01*
X88245Y30182D01*
X90284Y32221D01*
X90346Y32244D01*
X90481Y32370D01*
X90523Y32404D01*
X90562Y32432D01*
X90592Y32451D01*
X90611Y32462D01*
X90614Y32463D01*
X90630Y32466D01*
X90637Y32471D01*
X90646Y32474D01*
X90663Y32489D01*
X90673Y32495D01*
X90678Y32497D01*
X91186Y32598D01*
X91710Y32949D01*
X92060Y33473D01*
X92183Y34091D01*
X92060Y34709D01*
X91710Y35233D01*
X91186Y35583D01*
X90568Y35706D01*
X89949Y35583D01*
X89425Y35233D01*
X89075Y34709D01*
X88974Y34201D01*
X88972Y34196D01*
X88965Y34187D01*
X88951Y34169D01*
X88948Y34160D01*
X88943Y34153D01*
X88940Y34137D01*
X88939Y34134D01*
X88928Y34115D01*
X88909Y34085D01*
X88885Y34052D01*
X88790Y33941D01*
X88730Y33878D01*
X88704Y33814D01*
X86987Y32096D01*
X74742D01*
X72388Y34451D01*
Y45137D01*
X72302Y45566D01*
X72059Y45930D01*
X72059Y45930D01*
X66862Y51127D01*
X66839Y51189D01*
X66714Y51324D01*
X66680Y51365D01*
X66651Y51405D01*
X66632Y51434D01*
X66622Y51454D01*
X66621Y51456D01*
X66617Y51472D01*
X66613Y51479D01*
X66610Y51489D01*
X66595Y51506D01*
X66588Y51516D01*
X66586Y51521D01*
X66485Y52028D01*
X66135Y52552D01*
X65611Y52903D01*
X64993Y53025D01*
D02*
G37*
G36*
X45167Y31552D02*
X44549Y31429D01*
X44025Y31079D01*
X43675Y30555D01*
X43552Y29937D01*
X43675Y29319D01*
X44025Y28795D01*
X44549Y28445D01*
X45167Y28322D01*
X45785Y28445D01*
X46309Y28795D01*
X46659Y29319D01*
X46782Y29937D01*
X46659Y30555D01*
X46309Y31079D01*
X45785Y31429D01*
X45167Y31552D01*
D02*
G37*
G36*
X24605Y32290D02*
X23844Y32139D01*
X23200Y31708D01*
X22769Y31063D01*
X22618Y30303D01*
X22769Y29542D01*
X23200Y28898D01*
X23844Y28467D01*
X24605Y28316D01*
X25365Y28467D01*
X26010Y28898D01*
X26441Y29542D01*
X26592Y30303D01*
X26441Y31063D01*
X26010Y31708D01*
X25365Y32139D01*
X24605Y32290D01*
D02*
G37*
G36*
X11807Y27668D02*
X10735D01*
Y25174D01*
X14735D01*
X14699Y25449D01*
X14400Y26171D01*
X13924Y26791D01*
X13304Y27267D01*
X12582Y27566D01*
X11807Y27668D01*
D02*
G37*
G36*
X9735D02*
X8662D01*
X7887Y27566D01*
X7165Y27267D01*
X6545Y26791D01*
X6069Y26171D01*
X5770Y25449D01*
X5734Y25174D01*
X9735D01*
Y27668D01*
D02*
G37*
G36*
X28736Y27668D02*
X27073D01*
Y25174D01*
X31664D01*
X31628Y25448D01*
X31329Y26171D01*
X30853Y26791D01*
X30233Y27266D01*
X29511Y27566D01*
X28736Y27668D01*
D02*
G37*
G36*
X26073D02*
X24410D01*
X23635Y27566D01*
X22913Y27266D01*
X22293Y26791D01*
X21817Y26171D01*
X21518Y25448D01*
X21482Y25174D01*
X26073D01*
Y27668D01*
D02*
G37*
G36*
X14735Y24174D02*
X10735D01*
Y21679D01*
X11807D01*
X12582Y21781D01*
X13304Y22081D01*
X13924Y22556D01*
X14400Y23177D01*
X14699Y23899D01*
X14735Y24174D01*
D02*
G37*
G36*
X9735D02*
X5734D01*
X5770Y23899D01*
X6069Y23177D01*
X6545Y22556D01*
X7165Y22081D01*
X7887Y21781D01*
X8662Y21679D01*
X9735D01*
Y24174D01*
D02*
G37*
G36*
X31664Y24173D02*
X27073D01*
Y21679D01*
X28736D01*
X29511Y21781D01*
X30233Y22081D01*
X30853Y22556D01*
X31329Y23176D01*
X31628Y23899D01*
X31664Y24173D01*
D02*
G37*
G36*
X26073D02*
X21482D01*
X21518Y23899D01*
X21817Y23176D01*
X22293Y22556D01*
X22913Y22081D01*
X23635Y21781D01*
X24410Y21679D01*
X26073D01*
Y24173D01*
D02*
G37*
%LPD*%
G36*
X65980Y51346D02*
X65991Y51289D01*
X66011Y51230D01*
X66037Y51169D01*
X66072Y51105D01*
X66115Y51038D01*
X66165Y50969D01*
X66223Y50897D01*
X66363Y50747D01*
X65656Y50039D01*
X65580Y50113D01*
X65434Y50238D01*
X65365Y50288D01*
X65298Y50331D01*
X65234Y50365D01*
X65173Y50392D01*
X65113Y50411D01*
X65057Y50423D01*
X65003Y50426D01*
X65977Y51400D01*
X65980Y51346D01*
D02*
G37*
G36*
X90558Y33106D02*
X90504Y33103D01*
X90447Y33092D01*
X90388Y33073D01*
X90326Y33046D01*
X90262Y33011D01*
X90195Y32969D01*
X90126Y32918D01*
X90055Y32860D01*
X89904Y32720D01*
X89197Y33427D01*
X89271Y33504D01*
X89395Y33650D01*
X89446Y33719D01*
X89488Y33785D01*
X89523Y33849D01*
X89550Y33911D01*
X89569Y33970D01*
X89580Y34027D01*
X89583Y34081D01*
X90558Y33106D01*
D02*
G37*
D16*
X46147Y69266D02*
X50485Y64928D01*
X41818Y69266D02*
X46147D01*
X40761Y71590D02*
X47953D01*
X36238Y67067D02*
X40761Y71590D01*
X47953D02*
X52025Y67518D01*
X78574D01*
X95397Y50695D01*
X50485Y64928D02*
X78728D01*
X37480D02*
X41818Y69266D01*
X78728Y64928D02*
X92326Y51329D01*
Y48336D02*
Y51329D01*
X152806Y31496D02*
Y34576D01*
X151352Y36029D02*
Y36292D01*
Y36029D02*
X152806Y34576D01*
X140366Y23350D02*
Y23434D01*
X150395Y33463D01*
Y33547D01*
X152806Y31496D02*
X161826D01*
X152806Y19291D02*
Y31496D01*
X133950Y24042D02*
X149348Y39439D01*
X133883Y24042D02*
X133950D01*
X140494Y32849D02*
X154614Y46969D01*
X149348Y39439D02*
X161757D01*
X128273Y32849D02*
X140494D01*
X154614Y46969D02*
X161551D01*
X161757Y39439D02*
X161826Y39370D01*
X114678Y46444D02*
X128273Y32849D01*
X137890Y35063D02*
X139049D01*
X152019Y48033D02*
Y51461D01*
X139049Y35063D02*
X152019Y48033D01*
X75978Y34646D02*
X79453Y38120D01*
X75978Y39764D02*
X84495D01*
X88777Y44045D01*
X92326Y48336D02*
X92398Y48265D01*
X95397Y50695D02*
X108334D01*
X64993Y51410D02*
X71266Y45137D01*
X26481Y67067D02*
X36238D01*
X24880Y68668D02*
X26481Y67067D01*
X24456Y73125D02*
X24880Y72702D01*
Y68668D02*
Y72702D01*
X16583Y67799D02*
Y73125D01*
Y67799D02*
X19454Y64928D01*
X37480D01*
X74277Y30975D02*
X87451D01*
X90568Y34091D01*
X71266Y33986D02*
Y45137D01*
Y33986D02*
X74277Y30975D01*
X79453Y38120D02*
X88777D01*
Y44045D02*
X91564D01*
X155006Y54449D02*
X161157D01*
X161826Y55118D01*
X161551Y46969D02*
X161826Y47244D01*
X152019Y51461D02*
X155006Y54449D01*
X138490Y46260D02*
Y46714D01*
X143786Y52010D01*
X137534Y49318D02*
X138874Y50658D01*
X137534Y49318D02*
X137663D01*
X143786Y52010D02*
Y73125D01*
X150101Y60600D02*
X152806D01*
X135912Y65295D02*
X138874Y62333D01*
X135912Y65295D02*
Y73125D01*
X138874Y50658D02*
Y62333D01*
X149919Y60781D02*
X150101Y60600D01*
X152806D02*
X155006Y62801D01*
X161635D02*
X161826Y62992D01*
X155006Y62801D02*
X161635D01*
D43*
X161826Y15748D02*
D03*
Y23622D02*
D03*
Y31496D02*
D03*
Y39370D02*
D03*
Y47244D02*
D03*
Y55118D02*
D03*
Y62992D02*
D03*
D54*
X38302Y60054D02*
X43543Y65295D01*
X38302Y53589D02*
Y60054D01*
X86005Y46460D02*
Y51710D01*
X84121Y44576D02*
X86005Y46460D01*
X51951Y56226D02*
X81490D01*
X86005Y51710D01*
X104297Y64173D02*
X122552D01*
X93300D02*
X104297D01*
X122552D02*
X127661Y69283D01*
Y72749D02*
X128038Y73125D01*
X127661Y69283D02*
Y72749D01*
D59*
X128038Y73125D02*
D03*
X120164D02*
D03*
X135912D02*
D03*
X24456Y73125D02*
D03*
X8708D02*
D03*
X16583D02*
D03*
D60*
X143786Y73125D02*
D03*
X32331Y73125D02*
D03*
D61*
X24605Y30303D02*
D03*
Y53059D02*
D03*
D62*
X10235Y24674D02*
D03*
X10234Y58689D02*
D03*
D63*
X26573Y24674D02*
D03*
Y58689D02*
D03*
D64*
X93506Y24801D02*
D03*
X150210Y52670D02*
D03*
X141774Y16985D02*
D03*
X147458Y19442D02*
D03*
X144978Y17674D02*
D03*
X149743Y22502D02*
D03*
X72517Y29205D02*
D03*
X70031Y31372D02*
D03*
X67364Y29078D02*
D03*
X81274Y14076D02*
D03*
X78484Y17799D02*
D03*
X73343Y18149D02*
D03*
Y22974D02*
D03*
X43543Y65295D02*
D03*
X150395Y33547D02*
D03*
X140366Y23350D02*
D03*
X151352Y36292D02*
D03*
X152806Y19291D02*
D03*
X133883Y24042D02*
D03*
X118898Y18126D02*
D03*
X75978Y34646D02*
D03*
X45167Y29937D02*
D03*
X40033Y48405D02*
D03*
X38302Y53589D02*
D03*
X137890Y35063D02*
D03*
X106777Y40819D02*
D03*
X106856Y45930D02*
D03*
X146483Y50414D02*
D03*
X138610Y37571D02*
D03*
X153906Y56349D02*
D03*
X129513Y56623D02*
D03*
X51336Y32459D02*
D03*
X47636Y32554D02*
D03*
X64993Y51410D02*
D03*
X51951Y56226D02*
D03*
X108334Y50695D02*
D03*
X86005Y51710D02*
D03*
X92398Y48265D02*
D03*
X90568Y34091D02*
D03*
X88777Y38120D02*
D03*
X91564Y44045D02*
D03*
X84121Y44576D02*
D03*
X75978Y39764D02*
D03*
X92900Y64100D02*
D03*
X104297Y64173D02*
D03*
X114678Y46444D02*
D03*
X133667Y57247D02*
D03*
X138490Y46260D02*
D03*
X137663Y49318D02*
D03*
X149919Y60781D02*
D03*
M02*
