G04*
G04 #@! TF.GenerationSoftware,Altium Limited,Altium Designer,20.0.12 (288)*
G04*
G04 Layer_Color=8388736*
%FSLAX25Y25*%
%MOIN*%
G70*
G01*
G75*
%ADD21R,0.05858X0.05661*%
%ADD22R,0.05661X0.05858*%
%ADD23O,0.03181X0.09087*%
%ADD24O,0.09087X0.03181*%
%ADD25R,0.06724X0.07512*%
%ADD26R,0.04362X0.05937*%
%ADD27R,0.10268X0.08299*%
%ADD28R,0.06528X0.04362*%
%ADD29R,0.06528X0.03181*%
%ADD30R,0.02762X0.02959*%
%ADD31R,0.02959X0.02762*%
%ADD32R,0.13811X0.07512*%
%ADD33O,0.07906X0.09087*%
G04:AMPARAMS|DCode=34|XSize=79.06mil|YSize=90.87mil|CornerRadius=0mil|HoleSize=0mil|Usage=FLASHONLY|Rotation=180.000|XOffset=0mil|YOffset=0mil|HoleType=Round|Shape=Octagon|*
%AMOCTAGOND34*
4,1,8,0.01976,-0.04543,-0.01976,-0.04543,-0.03953,-0.02567,-0.03953,0.02567,-0.01976,0.04543,0.01976,0.04543,0.03953,0.02567,0.03953,-0.02567,0.01976,-0.04543,0.0*
%
%ADD34OCTAGOND34*%

%ADD35C,0.04953*%
%ADD36O,0.09082X0.05937*%
%ADD37O,0.10263X0.05937*%
%ADD38C,0.03969*%
D21*
X46848Y14009D02*
D03*
Y7946D02*
D03*
X39748Y14009D02*
D03*
Y7946D02*
D03*
X75061Y4622D02*
D03*
Y10685D02*
D03*
X86074Y56349D02*
D03*
Y62412D02*
D03*
X62661Y65630D02*
D03*
Y59567D02*
D03*
D22*
X96948Y73559D02*
D03*
X103011D02*
D03*
X59466Y21691D02*
D03*
X65529D02*
D03*
D23*
X104297Y25394D02*
D03*
X106265D02*
D03*
X108234D02*
D03*
X110202D02*
D03*
X112171D02*
D03*
X114139D02*
D03*
X116108D02*
D03*
X118076D02*
D03*
X120045D02*
D03*
X122013D02*
D03*
X123982D02*
D03*
X125950D02*
D03*
Y57284D02*
D03*
X123982D02*
D03*
X122013D02*
D03*
X120045D02*
D03*
X118076D02*
D03*
X116108D02*
D03*
X114139D02*
D03*
X112171D02*
D03*
X110202D02*
D03*
X108234D02*
D03*
X106265D02*
D03*
X104297D02*
D03*
D24*
X131068Y30512D02*
D03*
Y32480D02*
D03*
Y34449D02*
D03*
Y36417D02*
D03*
Y38386D02*
D03*
Y40354D02*
D03*
Y42323D02*
D03*
Y44291D02*
D03*
Y46260D02*
D03*
Y48228D02*
D03*
Y50197D02*
D03*
Y52165D02*
D03*
X99178D02*
D03*
Y50197D02*
D03*
Y48228D02*
D03*
Y46260D02*
D03*
Y44291D02*
D03*
Y42323D02*
D03*
Y40354D02*
D03*
Y38386D02*
D03*
Y36417D02*
D03*
Y34449D02*
D03*
Y32480D02*
D03*
Y30512D02*
D03*
D25*
X59588Y13579D02*
D03*
Y4918D02*
D03*
X67069D02*
D03*
Y13579D02*
D03*
D26*
X70557Y55693D02*
D03*
X78038D02*
D03*
X74298Y65142D02*
D03*
D27*
X127756Y8268D02*
D03*
X91142D02*
D03*
D28*
X28837Y54280D02*
D03*
Y51130D02*
D03*
Y29083D02*
D03*
Y32232D02*
D03*
D29*
Y34791D02*
D03*
Y36760D02*
D03*
Y38728D02*
D03*
Y40697D02*
D03*
Y42665D02*
D03*
Y44634D02*
D03*
Y46602D02*
D03*
Y48571D02*
D03*
D30*
X143137Y40118D02*
D03*
X146483D02*
D03*
X143137Y53775D02*
D03*
X146483D02*
D03*
X84121Y30275D02*
D03*
X80774D02*
D03*
X84121Y35923D02*
D03*
X80774D02*
D03*
X84121Y41339D02*
D03*
X80774D02*
D03*
X146901Y22691D02*
D03*
X143555D02*
D03*
X143555Y33964D02*
D03*
X146901D02*
D03*
X143137Y46769D02*
D03*
X146483D02*
D03*
X146901Y28328D02*
D03*
X143555D02*
D03*
X47635Y42476D02*
D03*
X50982D02*
D03*
X143137Y60781D02*
D03*
X146483D02*
D03*
X50982Y36861D02*
D03*
X47635D02*
D03*
X60717Y51698D02*
D03*
X57371D02*
D03*
X109330Y73559D02*
D03*
X112676D02*
D03*
D31*
X56780Y42529D02*
D03*
Y45875D02*
D03*
X56818Y36945D02*
D03*
Y33599D02*
D03*
X144978Y14076D02*
D03*
Y10729D02*
D03*
X88439Y21511D02*
D03*
Y24857D02*
D03*
X138412Y10730D02*
D03*
Y14076D02*
D03*
X42300Y34827D02*
D03*
Y38173D02*
D03*
X46848Y24869D02*
D03*
Y21522D02*
D03*
X39748Y24869D02*
D03*
Y21522D02*
D03*
D32*
X161826Y15748D02*
D03*
Y23622D02*
D03*
Y31496D02*
D03*
Y39370D02*
D03*
Y47244D02*
D03*
Y55118D02*
D03*
Y62992D02*
D03*
D33*
X128038Y73125D02*
D03*
X120164D02*
D03*
X135912D02*
D03*
X24456Y73125D02*
D03*
X8708D02*
D03*
X16583D02*
D03*
D34*
X143786Y73125D02*
D03*
X32331Y73125D02*
D03*
D35*
X24605Y30303D02*
D03*
Y53059D02*
D03*
D36*
X10235Y24674D02*
D03*
X10234Y58689D02*
D03*
D37*
X26573Y24674D02*
D03*
Y58689D02*
D03*
D38*
X93506Y24801D02*
D03*
M02*
