G04*
G04 #@! TF.GenerationSoftware,Altium Limited,Altium Designer,20.0.12 (288)*
G04*
G04 Layer_Color=2752767*
%FSLAX25Y25*%
%MOIN*%
G70*
G01*
G75*
%ADD68C,0.00200*%
%ADD69C,0.00267*%
D68*
X127238Y72325D02*
Y73925D01*
X128838D01*
Y72325D01*
X127238D01*
X119364D02*
Y73925D01*
X120964D01*
Y72325D01*
X119364D01*
X135112D02*
Y73925D01*
X136712D01*
Y72325D01*
X135112D01*
X142986D02*
Y73925D01*
X144586D01*
Y72325D01*
X142986D01*
X31530Y72325D02*
Y73925D01*
X33130D01*
Y72325D01*
X31530D01*
X23656D02*
Y73925D01*
X25256D01*
Y72325D01*
X23656D01*
X7908D02*
Y73925D01*
X9508D01*
Y72325D01*
X7908D01*
X15783D02*
Y73925D01*
X17383D01*
Y72325D01*
X15783D01*
X10234Y23873D02*
X9434Y25473D01*
X11034D01*
X10234Y23873D01*
Y57889D02*
X9434Y59489D01*
X11034D01*
X10234Y57889D01*
X26573Y23873D02*
X26973Y24273D01*
X27373D01*
X26973Y24673D01*
X27373Y25073D01*
X26973D01*
X26573Y25473D01*
X26173Y25073D01*
X25773D01*
X26173Y24673D01*
X25773Y24273D01*
X26173D01*
X26573Y23873D01*
Y57889D02*
X26973Y58289D01*
X27373D01*
X26973Y58689D01*
X27373Y59089D01*
X26973D01*
X26573Y59489D01*
X26173Y59089D01*
X25773D01*
X26173Y58689D01*
X25773Y58289D01*
X26173D01*
X26573Y57889D01*
X92706Y24001D02*
X93106Y24801D01*
X92706Y25601D01*
X93506Y25201D01*
X94306Y25601D01*
X93906Y24801D01*
X94306Y24001D01*
X93506Y24401D01*
X92706Y24001D01*
X149410Y51870D02*
X149810Y52670D01*
X149410Y53470D01*
X150210Y53070D01*
X151010Y53470D01*
X150610Y52670D01*
X151010Y51870D01*
X150210Y52270D01*
X149410Y51870D01*
X140974Y16185D02*
X141374Y16985D01*
X140974Y17785D01*
X141774Y17385D01*
X142574Y17785D01*
X142174Y16985D01*
X142574Y16185D01*
X141774Y16585D01*
X140974Y16185D01*
X146658Y18642D02*
X147058Y19442D01*
X146658Y20242D01*
X147458Y19842D01*
X148258Y20242D01*
X147858Y19442D01*
X148258Y18642D01*
X147458Y19042D01*
X146658Y18642D01*
X144178Y16874D02*
X144578Y17674D01*
X144178Y18474D01*
X144978Y18074D01*
X145778Y18474D01*
X145378Y17674D01*
X145778Y16874D01*
X144978Y17274D01*
X144178Y16874D01*
X148943Y21702D02*
X149343Y22502D01*
X148943Y23302D01*
X149743Y22902D01*
X150543Y23302D01*
X150143Y22502D01*
X150543Y21702D01*
X149743Y22102D01*
X148943Y21702D01*
X71716Y28405D02*
X72117Y29205D01*
X71716Y30005D01*
X72517Y29605D01*
X73317Y30005D01*
X72917Y29205D01*
X73317Y28405D01*
X72517Y28805D01*
X71716Y28405D01*
X69231Y30572D02*
X69631Y31372D01*
X69231Y32172D01*
X70031Y31772D01*
X70831Y32172D01*
X70431Y31372D01*
X70831Y30572D01*
X70031Y30972D01*
X69231Y30572D01*
X66564Y28278D02*
X66964Y29078D01*
X66564Y29877D01*
X67364Y29478D01*
X68164Y29877D01*
X67764Y29078D01*
X68164Y28278D01*
X67364Y28677D01*
X66564Y28278D01*
X80475Y13276D02*
X80875Y14076D01*
X80475Y14876D01*
X81274Y14476D01*
X82074Y14876D01*
X81674Y14076D01*
X82074Y13276D01*
X81274Y13676D01*
X80475Y13276D01*
X77684Y16999D02*
X78084Y17799D01*
X77684Y18599D01*
X78484Y18199D01*
X79284Y18599D01*
X78884Y17799D01*
X79284Y16999D01*
X78484Y17399D01*
X77684Y16999D01*
X72543Y17349D02*
X72943Y18149D01*
X72543Y18949D01*
X73343Y18549D01*
X74143Y18949D01*
X73743Y18149D01*
X74143Y17349D01*
X73343Y17749D01*
X72543Y17349D01*
Y22174D02*
X72943Y22974D01*
X72543Y23774D01*
X73343Y23373D01*
X74143Y23774D01*
X73743Y22974D01*
X74143Y22174D01*
X73343Y22573D01*
X72543Y22174D01*
X42744Y64495D02*
X43143Y65295D01*
X42744Y66096D01*
X43543Y65696D01*
X44344Y66096D01*
X43944Y65295D01*
X44344Y64495D01*
X43543Y64895D01*
X42744Y64495D01*
X149595Y32747D02*
X149995Y33547D01*
X149595Y34347D01*
X150395Y33947D01*
X151195Y34347D01*
X150795Y33547D01*
X151195Y32747D01*
X150395Y33147D01*
X149595Y32747D01*
X139566Y22550D02*
X139966Y23350D01*
X139566Y24150D01*
X140366Y23750D01*
X141166Y24150D01*
X140766Y23350D01*
X141166Y22550D01*
X140366Y22950D01*
X139566Y22550D01*
X150552Y35491D02*
X150952Y36292D01*
X150552Y37091D01*
X151352Y36691D01*
X152152Y37091D01*
X151752Y36292D01*
X152152Y35491D01*
X151352Y35892D01*
X150552Y35491D01*
X152006Y18491D02*
X152406Y19291D01*
X152006Y20091D01*
X152806Y19691D01*
X153606Y20091D01*
X153206Y19291D01*
X153606Y18491D01*
X152806Y18891D01*
X152006Y18491D01*
X133083Y23242D02*
X133483Y24042D01*
X133083Y24842D01*
X133883Y24442D01*
X134683Y24842D01*
X134283Y24042D01*
X134683Y23242D01*
X133883Y23642D01*
X133083Y23242D01*
X118098Y17326D02*
X118498Y18126D01*
X118098Y18926D01*
X118898Y18526D01*
X119698Y18926D01*
X119298Y18126D01*
X119698Y17326D01*
X118898Y17726D01*
X118098Y17326D01*
X75178Y33846D02*
X75578Y34646D01*
X75178Y35446D01*
X75978Y35046D01*
X76778Y35446D01*
X76378Y34646D01*
X76778Y33846D01*
X75978Y34246D01*
X75178Y33846D01*
X44367Y29137D02*
X44767Y29937D01*
X44367Y30737D01*
X45167Y30337D01*
X45967Y30737D01*
X45567Y29937D01*
X45967Y29137D01*
X45167Y29537D01*
X44367Y29137D01*
X39233Y47605D02*
X39632Y48405D01*
X39233Y49205D01*
X40033Y48805D01*
X40832Y49205D01*
X40433Y48405D01*
X40832Y47605D01*
X40033Y48005D01*
X39233Y47605D01*
X37502Y52789D02*
X37902Y53589D01*
X37502Y54389D01*
X38302Y53989D01*
X39102Y54389D01*
X38702Y53589D01*
X39102Y52789D01*
X38302Y53189D01*
X37502Y52789D01*
X137090Y34262D02*
X137490Y35063D01*
X137090Y35862D01*
X137890Y35462D01*
X138690Y35862D01*
X138290Y35063D01*
X138690Y34262D01*
X137890Y34663D01*
X137090Y34262D01*
X105977Y40019D02*
X106377Y40819D01*
X105977Y41619D01*
X106777Y41219D01*
X107577Y41619D01*
X107177Y40819D01*
X107577Y40019D01*
X106777Y40419D01*
X105977Y40019D01*
X106056Y45130D02*
X106456Y45930D01*
X106056Y46730D01*
X106856Y46330D01*
X107656Y46730D01*
X107256Y45930D01*
X107656Y45130D01*
X106856Y45530D01*
X106056Y45130D01*
X145683Y49614D02*
X146083Y50414D01*
X145683Y51214D01*
X146483Y50814D01*
X147283Y51214D01*
X146883Y50414D01*
X147283Y49614D01*
X146483Y50014D01*
X145683Y49614D01*
X137810Y36771D02*
X138209Y37571D01*
X137810Y38371D01*
X138610Y37971D01*
X139409Y38371D01*
X139009Y37571D01*
X139409Y36771D01*
X138610Y37171D01*
X137810Y36771D01*
X153106Y55549D02*
X153506Y56349D01*
X153106Y57149D01*
X153906Y56749D01*
X154706Y57149D01*
X154306Y56349D01*
X154706Y55549D01*
X153906Y55949D01*
X153106Y55549D01*
X128713Y55823D02*
X129113Y56623D01*
X128713Y57423D01*
X129513Y57023D01*
X130313Y57423D01*
X129913Y56623D01*
X130313Y55823D01*
X129513Y56223D01*
X128713Y55823D01*
X50536Y31659D02*
X50936Y32459D01*
X50536Y33259D01*
X51336Y32859D01*
X52136Y33259D01*
X51736Y32459D01*
X52136Y31659D01*
X51336Y32059D01*
X50536Y31659D01*
X46836Y31754D02*
X47236Y32554D01*
X46836Y33354D01*
X47636Y32954D01*
X48436Y33354D01*
X48036Y32554D01*
X48436Y31754D01*
X47636Y32154D01*
X46836Y31754D01*
X64193Y50610D02*
X64593Y51410D01*
X64193Y52210D01*
X64993Y51810D01*
X65793Y52210D01*
X65393Y51410D01*
X65793Y50610D01*
X64993Y51010D01*
X64193Y50610D01*
X51151Y55426D02*
X51551Y56226D01*
X51151Y57025D01*
X51951Y56625D01*
X52751Y57025D01*
X52351Y56226D01*
X52751Y55426D01*
X51951Y55826D01*
X51151Y55426D01*
X107534Y49895D02*
X107934Y50695D01*
X107534Y51495D01*
X108334Y51095D01*
X109134Y51495D01*
X108734Y50695D01*
X109134Y49895D01*
X108334Y50295D01*
X107534Y49895D01*
X85205Y50910D02*
X85605Y51710D01*
X85205Y52510D01*
X86005Y52110D01*
X86805Y52510D01*
X86405Y51710D01*
X86805Y50910D01*
X86005Y51310D01*
X85205Y50910D01*
X91598Y47465D02*
X91998Y48265D01*
X91598Y49065D01*
X92398Y48665D01*
X93198Y49065D01*
X92798Y48265D01*
X93198Y47465D01*
X92398Y47865D01*
X91598Y47465D01*
X89768Y33291D02*
X90168Y34091D01*
X89768Y34891D01*
X90568Y34491D01*
X91368Y34891D01*
X90968Y34091D01*
X91368Y33291D01*
X90568Y33691D01*
X89768Y33291D01*
X87977Y37321D02*
X88377Y38120D01*
X87977Y38921D01*
X88777Y38521D01*
X89577Y38921D01*
X89177Y38120D01*
X89577Y37321D01*
X88777Y37721D01*
X87977Y37321D01*
X90764Y43245D02*
X91164Y44045D01*
X90764Y44845D01*
X91564Y44445D01*
X92364Y44845D01*
X91964Y44045D01*
X92364Y43245D01*
X91564Y43645D01*
X90764Y43245D01*
X83321Y43776D02*
X83721Y44576D01*
X83321Y45376D01*
X84121Y44976D01*
X84921Y45376D01*
X84521Y44576D01*
X84921Y43776D01*
X84121Y44176D01*
X83321Y43776D01*
X75178Y38964D02*
X75578Y39764D01*
X75178Y40564D01*
X75978Y40164D01*
X76778Y40564D01*
X76378Y39764D01*
X76778Y38964D01*
X75978Y39364D01*
X75178Y38964D01*
X92100Y63300D02*
X92500Y64100D01*
X92100Y64900D01*
X92900Y64500D01*
X93700Y64900D01*
X93300Y64100D01*
X93700Y63300D01*
X92900Y63700D01*
X92100Y63300D01*
X103497Y63373D02*
X103897Y64173D01*
X103497Y64973D01*
X104297Y64573D01*
X105097Y64973D01*
X104697Y64173D01*
X105097Y63373D01*
X104297Y63773D01*
X103497Y63373D01*
X113878Y45644D02*
X114278Y46444D01*
X113878Y47244D01*
X114678Y46844D01*
X115478Y47244D01*
X115078Y46444D01*
X115478Y45644D01*
X114678Y46044D01*
X113878Y45644D01*
X132867Y56447D02*
X133267Y57247D01*
X132867Y58047D01*
X133667Y57647D01*
X134467Y58047D01*
X134067Y57247D01*
X134467Y56447D01*
X133667Y56847D01*
X132867Y56447D01*
X137690Y45460D02*
X138090Y46260D01*
X137690Y47060D01*
X138490Y46660D01*
X139290Y47060D01*
X138890Y46260D01*
X139290Y45460D01*
X138490Y45860D01*
X137690Y45460D01*
X136863Y48518D02*
X137263Y49318D01*
X136863Y50118D01*
X137663Y49718D01*
X138463Y50118D01*
X138063Y49318D01*
X138463Y48518D01*
X137663Y48918D01*
X136863Y48518D01*
X149119Y59981D02*
X149519Y60781D01*
X149119Y61581D01*
X149919Y61181D01*
X150719Y61581D01*
X150319Y60781D01*
X150719Y59981D01*
X149919Y60381D01*
X149119Y59981D01*
D69*
X25405Y30303D02*
G03*
X25405Y30303I-800J0D01*
G01*
Y53059D02*
G03*
X25405Y53059I-800J0D01*
G01*
M02*
