G04*
G04 #@! TF.GenerationSoftware,Altium Limited,Altium Designer,20.0.12 (288)*
G04*
G04 Layer_Color=16711935*
%FSLAX25Y25*%
%MOIN*%
G70*
G01*
G75*
%ADD32R,0.13811X0.07512*%
%ADD33O,0.07906X0.09087*%
G04:AMPARAMS|DCode=34|XSize=79.06mil|YSize=90.87mil|CornerRadius=0mil|HoleSize=0mil|Usage=FLASHONLY|Rotation=180.000|XOffset=0mil|YOffset=0mil|HoleType=Round|Shape=Octagon|*
%AMOCTAGOND34*
4,1,8,0.01976,-0.04543,-0.01976,-0.04543,-0.03953,-0.02567,-0.03953,0.02567,-0.01976,0.04543,0.01976,0.04543,0.03953,0.02567,0.03953,-0.02567,0.01976,-0.04543,0.0*
%
%ADD34OCTAGOND34*%

%ADD35C,0.04953*%
%ADD36O,0.09082X0.05937*%
%ADD37O,0.10263X0.05937*%
%ADD38C,0.03969*%
D32*
X161826Y15748D02*
D03*
Y23622D02*
D03*
Y31496D02*
D03*
Y39370D02*
D03*
Y47244D02*
D03*
Y55118D02*
D03*
Y62992D02*
D03*
D33*
X128038Y73125D02*
D03*
X120164D02*
D03*
X135912D02*
D03*
X24456Y73125D02*
D03*
X8708D02*
D03*
X16583D02*
D03*
D34*
X143786Y73125D02*
D03*
X32331Y73125D02*
D03*
D35*
X24605Y30303D02*
D03*
Y53059D02*
D03*
D36*
X10235Y24674D02*
D03*
X10234Y58689D02*
D03*
D37*
X26573Y24674D02*
D03*
Y58689D02*
D03*
D38*
X93506Y24801D02*
D03*
M02*
